<?xml version="1.0" encoding="utf-8"?>
<!-- Generator: Adobe Illustrator 16.0.0, SVG Export Plug-In . SVG Version: 6.00 Build 0)  -->
<!DOCTYPE svg PUBLIC "-//W3C//DTD SVG 1.1//EN" "http://www.w3.org/Graphics/SVG/1.1/DTD/svg11.dtd">
<svg version="1.1" id="Capa_1" xmlns="http://www.w3.org/2000/svg" xmlns:xlink="http://www.w3.org/1999/xlink" x="0px" y="0px"
	 width="609px" height="609px" viewBox="1.494 1.494 609 609" enable-background="new 1.494 1.494 609 609" xml:space="preserve">
<circle fill="#E67E22" cx="305.206" cy="305.206" r="303.712"/>
<g>
	<path fill="#FFFFFF" d="M341.676,455.648c-4.556-8.009-6.982-10.5-8.165-11.697c-0.663-0.663-1.529-1.562-2.254-2.791
		c-5.581-4.666-8.072-12.471-7.647-18.556c0.127-1.908,0.631-3.595,1.293-5.188H208.033V170.64h164.134v184.22
		c0.048,0.111,0.063,0.142,0.11,0.253c2.791,5.707,6.48,13.195,9.318,18.791c1.309-0.866,2.775-1.686,4.383-2.301
		c1.481-0.567,3.469-1.135,5.786-1.293V152.636c-0.032-14.41-11.715-26.14-26.172-26.14H214.575
		c-14.441,0-26.124,11.73-26.124,26.14v306.702c0,14.457,11.682,26.155,26.124,26.155h151.049c5.549,0,10.658-1.734,14.882-4.699
		c-6.353-2.538-13.463-6.148-20.684-11.445C345.744,462.868,342.638,458.14,341.676,455.648z M348.392,142.892
		c3.689,0,6.7,2.996,6.7,6.669c0,3.721-2.995,6.669-6.7,6.669c-3.688,0-6.684-2.948-6.684-6.669
		C341.709,145.888,344.705,142.892,348.392,142.892z M255.093,145.43h70.03v7.631h-70.03V145.43z M321.986,457.636h-63.788v-19.629
		h63.77L321.986,457.636L321.986,457.636z M229.458,196.306h51.364v55.369h-51.364V196.306z M359.444,280.651
		c0,4.383-3.531,7.898-7.914,7.898H230.262c-4.367,0-7.915-3.515-7.915-7.898c0-4.367,3.531-7.914,7.915-7.914h121.284
		C355.913,272.737,359.444,276.285,359.444,280.651z M336.678,321.831H229.458c-4.367,0-7.914-3.531-7.914-7.914
		c0-4.353,3.531-7.899,7.914-7.899h121.283c4.368,0,7.915,3.531,7.915,7.899c0,4.366-3.547,7.914-7.915,7.914h-1.749
		c-3.61-1.419-7.646-1.892-11.446-0.427C337.263,321.5,336.978,321.705,336.678,321.831z M313.992,339.992
		c0.285,1.861,0.727,3.941,1.389,6.211c1.229,3.406,2.38,6.496,3.547,9.588h-89.47c-4.367,0-7.914-3.531-7.914-7.916
		c0-4.366,3.531-7.898,7.914-7.898L313.992,339.992L313.992,339.992z M417.886,484.421c0,0,2.333-5.881-8.308-8.419
		c0,0-19.408,0.473-40.313-12.092c0,0-14.378-4.841-15.859-8.546c-9.995-14.268-12.28-12.564-12.754-15.135
		c-9.774-4.305-12.36-26.519,6.559-16.364c0.252-0.111,12.802,9.821,12.864,9.569c0,0,10.121,8.497,15.497,8.813
		c7.048-3.927-13.495-34.604-13.7-37.285c0,0-11.225-18.855-29.671-56.946c-9.158-22.764,6.26-18.713,12.407-11.192
		c1.576-0.505,31.105,50.387,33.077,50.056c0,0,8.339-17.642,23.08-5.802c0,0,9.695-14.992,22.828-2.333
		c0,0,19.329-7.899,26.408,9.838c0,0,20.116,29.765,19.833,57.938l2.049,10.957L417.886,484.421z"/>
</g>
</svg>
