<?xml version="1.0" encoding="utf-8"?>
<!-- Generator: Adobe Illustrator 16.0.0, SVG Export Plug-In . SVG Version: 6.00 Build 0)  -->
<!DOCTYPE svg PUBLIC "-//W3C//DTD SVG 1.1//EN" "http://www.w3.org/Graphics/SVG/1.1/DTD/svg11.dtd">
<svg version="1.1" id="Capa_1" xmlns="http://www.w3.org/2000/svg" xmlns:xlink="http://www.w3.org/1999/xlink" x="0px" y="0px"
	 width="609px" height="609px" viewBox="0 0 609 609" enable-background="new 0 0 609 609" xml:space="preserve">
<circle fill="#E67E22" cx="305.206" cy="305.206" r="303.712"/>
<g>
	<g id="auto-fix">
		<polygon fill="#FFFFFF" points="225.565,179.202 266.904,202.352 243.754,161.013 266.904,119.675 225.565,142.825 
			184.226,119.675 207.376,161.013 184.226,202.352 		"/>
		<polygon fill="#FFFFFF" points="423.992,341.249 382.652,318.102 405.801,359.439 382.652,400.776 423.992,377.628 
			465.33,400.776 442.179,359.439 465.33,318.102 		"/>
		<polygon fill="#FFFFFF" points="465.33,119.675 423.992,142.825 382.652,119.675 405.801,161.013 382.652,202.352 
			423.992,179.202 465.33,202.352 442.179,161.013 		"/>
		<path fill="#FFFFFF" d="M339.66,207.313c-6.613-6.613-16.537-6.613-23.15,0L123.044,400.776c-6.613,6.614-6.613,16.536,0,23.149
			l38.031,38.031c6.615,6.613,16.536,6.613,23.15,0L377.69,268.493c6.612-6.615,6.612-16.535,0-23.15L339.66,207.313z
			 M321.469,298.258l-34.723-34.725l39.686-39.686l34.726,34.725L321.469,298.258z"/>
	</g>
</g>
</svg>
