<?xml version="1.0" encoding="utf-8"?>
<!-- Generator: Adobe Illustrator 16.0.0, SVG Export Plug-In . SVG Version: 6.00 Build 0)  -->
<!DOCTYPE svg PUBLIC "-//W3C//DTD SVG 1.1//EN" "http://www.w3.org/Graphics/SVG/1.1/DTD/svg11.dtd">
<svg version="1.1" id="Capa_1" xmlns="http://www.w3.org/2000/svg" xmlns:xlink="http://www.w3.org/1999/xlink" x="0px" y="0px"
	 width="609px" height="609px" viewBox="0 0 609 609" enable-background="new 0 0 609 609" xml:space="preserve">
<circle fill="#E67E22" cx="305.206" cy="305.206" r="303.712"/>
<g>
	<g>
		<path fill="#FFFFFF" d="M309.383,217.266l-5.142,4.697l-6.78-6.388c-1.409-0.237-2.79-0.538-4.137-0.925
			c-2.8,1.271-6.143,3.003-9.591,5.04c0.252-1.485,0.24-2.987-0.056-4.451c1.531-0.893,3.046-1.717,4.525-2.496
			c-7.918-3.62-14.329-9.927-18.099-17.763c-2.087,1.272-4.134,2.566-6.084,3.889c-2.856-1.637-5.607-3.197-7.772-4.422
			c-3.65,7.905-9.977,14.298-17.828,18.039c6.425,3.34,22.056,12,26.393,15.065c0.95,0.664,1.976,1.123,3.026,1.489v63.303
			c0,5.438,0.875,10.614,2.505,15.341c-0.049,0.504-0.076,1.015-0.076,1.524v14.215h0.092c-0.006,0.207-0.059,0.402-0.059,0.609
			l0.006,125.018c0,8.523,6.908,15.433,15.43,15.433c8.521,0,15.431-6.902,15.431-15.433l-0.006-125.022
			c0-0.207-0.054-0.399-0.059-0.604h2.316c-0.006,0.204-0.06,0.396-0.06,0.604L303.35,449.05c0,8.523,6.908,15.433,15.428,15.433
			h0.006c8.518,0,15.426-6.902,15.426-15.428l0.006-125.021c0-0.213-0.05-0.405-0.062-0.609h0.185l0.018-16.15
			c0,0,2.723-3.661,2.723-16.917c0-7.118,0.726-33.668,0.726-33.668l0.073-29.032c-0.168-0.08-22.09-12.093-22.09-12.093
			L309.383,217.266z"/>
		<path fill="#FFFFFF" d="M229.548,216.51l-6.783,5.201l-5.143-4.699c-11.237,5.122-24.741,11.501-24.926,11.589
			c-1.962,0.928-4.058,1.398-6.215,1.398c-2.393,0-4.695-0.628-6.752-1.707l-0.05,0.05c-12.996-10.429-23.831-28.479-27.629-36.251
			c-3.147-6.485-10.961-9.186-17.445-6.038c-6.489,3.149-9.189,10.962-6.04,17.444c2.3,4.743,23.412,46.595,55.261,56.567
			c1.836,0.575,3.678,1.001,5.522,1.342c0.207,8.026,0.593,23.515,0.593,28.707c0,13.253,2.728,16.91,2.728,16.91l0.011,16.16h0.241
			c-0.005,0.207-0.062,0.407-0.062,0.621l0.003,125.021c0,8.523,6.909,15.434,15.43,15.434c8.524,0,15.43-6.909,15.43-15.438
			l-0.003-125.016c0-0.214-0.056-0.414-0.062-0.621h2.323c-0.008,0.207-0.064,0.407-0.064,0.621L225.91,448.82
			c-0.005,8.524,6.903,15.438,15.427,15.438c8.521,0,15.43-6.909,15.43-15.434V323.805c0-0.213-0.053-0.412-0.059-0.621h0.037
			v-14.217c0-0.517-0.031-1.025-0.076-1.527c1.632-4.727,2.504-9.905,2.504-15.341v-64.492
			c-5.545,0.446-22.252-11.678-24.303-12.611C233.514,215.386,230.951,216.277,229.548,216.51z"/>
		<path fill="#FFFFFF" d="M186.059,225.852c1.738,0,3.507-0.375,5.178-1.171c0.17-0.08,10.998-5.194,21.33-9.941
			c-9.234-2.565-17.012-8.598-21.872-16.617c-5.369,2.508-9.404,4.413-9.832,4.616c-6.06,2.866-8.65,10.097-5.791,16.158
			C177.147,223.282,181.512,225.852,186.059,225.852z"/>
		<circle fill="#FFFFFF" cx="304.246" cy="179.547" r="33.629"/>
		<circle fill="#FFFFFF" cx="223.143" cy="179.547" r="33.629"/>
		<path fill="#FFFFFF" d="M395.26,214.576c10.437,4.793,21.515,10.025,21.688,10.105c1.678,0.793,3.442,1.165,5.188,1.165
			c4.538,0,8.897-2.564,10.973-6.952c2.861-6.058,0.279-13.295-5.779-16.158c-0.459-0.214-4.84-2.289-10.608-4.976
			C411.983,205.781,404.353,211.877,395.26,214.576z"/>
		<path fill="#FFFFFF" d="M385.348,145.917c18.574,0,33.634,15.057,33.634,33.629c0,18.574-15.06,33.629-33.634,33.629
			c-18.571,0-33.625-15.055-33.625-33.629C351.723,160.974,366.776,145.917,385.348,145.917z"/>
		<path fill="#FFFFFF" d="M477.389,183.418c-6.473-3.16-14.286-0.462-17.456,6.01c-4.181,8.562-16.872,29.546-31.59,39.131
			c-2.046,1.071-4.337,1.69-6.713,1.69c-2.163,0-4.259-0.473-6.222-1.398c-0.185-0.088-13.684-6.467-24.923-11.587l-5.143,4.697
			l-6.786-6.388c-1.402-0.237-2.796-0.538-4.131-0.925c-2.801,1.271-6.143,3.003-9.598,5.04c0.257-1.485,0.241-2.987-0.055-4.451
			c1.529-0.893,3.04-1.717,4.521-2.496c-7.914-3.62-14.325-9.927-18.099-17.763c-2.084,1.272-4.124,2.566-6.08,3.889
			c-2.857-1.637-5.607-3.197-7.776-4.422c-3.644,7.905-9.972,14.298-17.824,18.039c6.424,3.34,22.057,12,26.395,15.065
			c0.95,0.664,1.973,1.123,3.022,1.49v63.301c0,5.438,0.878,10.614,2.504,15.34c-0.045,0.504-0.071,1.016-0.071,1.525v14.215h0.095
			c-0.005,0.207-0.062,0.402-0.062,0.609l0.006,125.018c0,8.523,6.907,15.432,15.433,15.432c8.523,0,15.428-6.901,15.428-15.432
			l-0.006-125.012c0-0.213-0.057-0.406-0.063-0.609h2.319c-0.006,0.203-0.062,0.396-0.062,0.604l-0.006,125.028
			c0,8.524,6.909,15.434,15.434,15.434l0,0c8.523,0,15.433-6.908,15.433-15.427l0.012-125.028c0-0.207-0.063-0.399-0.063-0.604
			h0.179l0.012-16.156c0,0,2.729-3.655,2.729-16.914c0-5.757,0.47-24.203,0.653-31.061c1.554-0.151,3.112-0.392,4.668-0.711
			l0.116,0.051c0.018-0.027,0.034-0.056,0.057-0.084c1.497-0.313,3.001-0.671,4.494-1.14c31.847-9.973,52.958-51.823,55.261-56.567
			C486.567,194.374,483.862,186.576,477.389,183.418z"/>
	</g>
</g>
</svg>
