<?xml version="1.0" encoding="utf-8"?>
<!-- Generator: Adobe Illustrator 16.0.0, SVG Export Plug-In . SVG Version: 6.00 Build 0)  -->
<!DOCTYPE svg PUBLIC "-//W3C//DTD SVG 1.1//EN" "http://www.w3.org/Graphics/SVG/1.1/DTD/svg11.dtd">
<svg version="1.1" id="Capa_1" xmlns="http://www.w3.org/2000/svg" xmlns:xlink="http://www.w3.org/1999/xlink" x="0px" y="0px"
	 width="609px" height="609px" viewBox="0 0 609 609" enable-background="new 0 0 609 609" xml:space="preserve">
<circle fill="#E67E22" cx="305.206" cy="305.206" r="303.712"/>
<g>
	<g>
		<path fill="#FFFFFF" d="M295.37,251.182c-14.895,0-27.013,12.118-27.013,27.013s12.118,27.013,27.013,27.013
			c14.896,0,27.014-12.118,27.014-27.013S310.263,251.182,295.37,251.182z"/>
		<path fill="#FFFFFF" d="M358.254,439.837c-14.894,0-27.012,12.119-27.012,27.012c0,14.896,12.118,27.015,27.012,27.015
			c14.896,0,27.013-12.117,27.013-27.015C385.266,451.956,373.147,439.837,358.254,439.837z"/>
		<path fill="#FFFFFF" d="M295.37,188.297c-14.895,0-27.013,12.119-27.013,27.013s12.118,27.013,27.013,27.013
			c14.896,0,27.014-12.118,27.014-27.013S310.263,188.297,295.37,188.297z"/>
		<path fill="#FFFFFF" d="M295.37,314.066c-14.895,0-27.013,12.117-27.013,27.015c0,14.894,12.118,27.012,27.013,27.012
			c14.896,0,27.014-12.118,27.014-27.012C322.384,326.186,310.263,314.066,295.37,314.066z"/>
		<path fill="#FFFFFF" d="M295.37,376.952c-14.895,0-27.013,12.116-27.013,27.012c0,14.896,12.118,27.014,27.013,27.014
			c14.896,0,27.014-12.118,27.014-27.014S310.263,376.952,295.37,376.952z"/>
		<path fill="#FFFFFF" d="M358.254,376.952c-14.894,0-27.012,12.116-27.012,27.012c0,14.896,12.118,27.014,27.012,27.014
			c14.896,0,27.013-12.118,27.013-27.014S373.147,376.952,358.254,376.952z"/>
		<path fill="#FFFFFF" d="M142.587,309.637c0,14.896,12.119,27.014,27.013,27.014c14.896,0,27.014-12.117,27.014-27.014
			c0-14.895-12.118-27.013-27.014-27.013C154.705,282.625,142.587,294.742,142.587,309.637z"/>
		<path fill="#FFFFFF" d="M232.485,251.182c-14.896,0-27.013,12.118-27.013,27.013s12.118,27.013,27.013,27.013
			s27.011-12.118,27.011-27.013S247.38,251.182,232.485,251.182z"/>
		<path fill="#FFFFFF" d="M232.485,314.066c-14.896,0-27.013,12.117-27.013,27.015c0,14.894,12.118,27.012,27.013,27.012
			s27.011-12.118,27.011-27.012C259.497,326.186,247.38,314.066,232.485,314.066z"/>
		<path fill="#FFFFFF" d="M358.254,314.066c-14.894,0-27.012,12.117-27.012,27.015c0,14.894,12.118,27.012,27.012,27.012
			c14.896,0,27.013-12.118,27.013-27.012C385.266,326.186,373.147,314.066,358.254,314.066z"/>
		<path fill="#FFFFFF" d="M358.254,251.182c-14.894,0-27.012,12.118-27.012,27.013s12.118,27.013,27.012,27.013
			c14.896,0,27.013-12.118,27.013-27.013S373.147,251.182,358.254,251.182z"/>
		<path fill="#FFFFFF" d="M358.254,188.297c-14.894,0-27.012,12.119-27.012,27.013s12.118,27.013,27.012,27.013
			c14.896,0,27.013-12.118,27.013-27.013S373.147,188.297,358.254,188.297z"/>
		<path fill="#FFFFFF" d="M358.254,125.412c-14.894,0-27.012,12.118-27.012,27.013s12.118,27.013,27.012,27.013
			c14.896,0,27.013-12.119,27.013-27.013C385.267,137.531,373.147,125.412,358.254,125.412z"/>
	</g>
</g>
</svg>
