<?xml version="1.0" encoding="utf-8"?>
<!-- Generator: Adobe Illustrator 16.0.0, SVG Export Plug-In . SVG Version: 6.00 Build 0)  -->
<!DOCTYPE svg PUBLIC "-//W3C//DTD SVG 1.1//EN" "http://www.w3.org/Graphics/SVG/1.1/DTD/svg11.dtd">
<svg version="1.1" id="Capa_1" xmlns="http://www.w3.org/2000/svg" xmlns:xlink="http://www.w3.org/1999/xlink" x="0px" y="0px"
	 width="609px" height="609px" viewBox="0 0 609 609" enable-background="new 0 0 609 609" xml:space="preserve">
<circle fill="#E67E22" cx="305.206" cy="305.206" r="303.712"/>
<g>
	<path fill="#FFFFFF" d="M365.093,344.479c-17.584,0-33.094,8.377-43.228,21.205l-93.99-48.064c1.23-4.59,2.116-9.332,2.116-14.323
		c0-5.432-1.051-10.547-2.516-15.523l93.574-47.845c10.078,13.409,25.991,22.173,44.059,22.173
		c30.605,0,55.364-24.759,55.364-55.337c0-30.553-24.759-55.324-55.364-55.324c-30.537,0-55.323,24.773-55.323,55.324
		c0,5.004,0.885,9.76,2.129,14.363l-93.976,48.066c-10.147-12.842-25.686-21.248-43.296-21.248
		c-30.58,0-55.324,24.787-55.324,55.351c0,30.563,24.745,55.339,55.324,55.339c18.095,0,33.993-8.793,44.112-22.217l93.532,47.846
		c-1.465,4.963-2.529,10.119-2.529,15.566c0,30.563,24.786,55.337,55.324,55.337c30.605,0,55.366-24.773,55.366-55.337
		C420.458,369.236,395.7,344.479,365.093,344.479z"/>
</g>
</svg>
