<?xml version="1.0" encoding="utf-8"?>
<!-- Generator: Adobe Illustrator 16.0.0, SVG Export Plug-In . SVG Version: 6.00 Build 0)  -->
<!DOCTYPE svg PUBLIC "-//W3C//DTD SVG 1.1//EN" "http://www.w3.org/Graphics/SVG/1.1/DTD/svg11.dtd">
<svg version="1.1" id="Capa_1" xmlns="http://www.w3.org/2000/svg" xmlns:xlink="http://www.w3.org/1999/xlink" x="0px" y="0px"
	 width="609px" height="609px" viewBox="0 0 609 609" enable-background="new 0 0 609 609" xml:space="preserve">
<circle fill="#E67E22" cx="305.206" cy="305.206" r="303.712"/>
<g>
	<g id="Wi-Fi">
		<g>
			<path fill="#FFFFFF" d="M301.593,377.273c-18.914,0-34.263,15.35-34.263,34.263s15.35,34.263,34.263,34.263
				c18.913,0,34.264-15.35,34.264-34.263S320.506,377.273,301.593,377.273z M485.169,257.482
				C439.35,202.959,372.436,171.7,301.593,171.7s-137.746,31.259-183.577,85.782c-6.087,7.241-5.15,18.045,2.102,24.132
				c3.208,2.694,7.104,4.021,10.998,4.021c4.888,0,9.743-2.079,13.133-6.11c39.288-46.745,96.643-73.561,157.343-73.561
				c60.701,0,118.057,26.816,157.343,73.55c3.393,4.03,8.245,6.11,13.135,6.11c3.896,0,7.801-1.314,11.01-4.021
				C490.319,275.526,491.256,264.711,485.169,257.482z M301.593,240.225c-50.605,0-98.39,22.327-131.122,61.261
				c-6.087,7.241-5.15,18.045,2.102,24.132c3.208,2.694,7.114,4.021,11.009,4.021c4.889,0,9.743-2.078,13.123-6.109
				c26.188-31.167,64.424-49.04,104.889-49.04c40.463,0,78.699,17.874,104.898,49.04c3.392,4.044,8.246,6.109,13.121,6.109
				c3.896,0,7.801-1.313,11.011-4.021c7.251-6.087,8.187-16.901,2.102-24.132C399.982,262.553,352.197,240.225,301.593,240.225z
				 M301.593,308.749c-30.379,0-59.057,13.397-78.677,36.752c-6.088,7.241-5.151,18.045,2.102,24.132
				c3.208,2.695,7.114,4.021,11.009,4.021c4.888,0,9.743-2.079,13.123-6.11c13.1-15.59,32.218-24.532,52.444-24.532
				c20.227,0,39.346,8.942,52.443,24.532c3.392,4.043,8.245,6.11,13.122,6.11c3.896,0,7.801-1.313,11.01-4.021
				c7.252-6.088,8.188-16.892,2.103-24.132C360.648,322.146,331.971,308.749,301.593,308.749z"/>
		</g>
	</g>
</g>
</svg>
