<?xml version="1.0" encoding="utf-8"?>
<!-- Generator: Adobe Illustrator 16.0.0, SVG Export Plug-In . SVG Version: 6.00 Build 0)  -->
<!DOCTYPE svg PUBLIC "-//W3C//DTD SVG 1.1//EN" "http://www.w3.org/Graphics/SVG/1.1/DTD/svg11.dtd">
<svg version="1.1" id="Layer_1" xmlns="http://www.w3.org/2000/svg" xmlns:xlink="http://www.w3.org/1999/xlink" x="0px" y="0px"
	 width="300px" height="300px" viewBox="0 0 300 300" enable-background="new 0 0 300 300" xml:space="preserve">
<circle fill-rule="evenodd" clip-rule="evenodd" fill="#E0F7FA" cx="150" cy="150" r="130"/>
<circle fill-rule="evenodd" clip-rule="evenodd" fill="#E0F7FA" cx="150" cy="150" r="130"/>
<circle fill-rule="evenodd" clip-rule="evenodd" fill="none" stroke="#80DEEA" stroke-width="5" stroke-miterlimit="10" cx="150" cy="150" r="140"/>
<g>
	<path opacity="0.8" fill-rule="evenodd" clip-rule="evenodd" fill="#B2DFDB" d="M149.998,190.652
		c63.924,0,83.649,8.086,83.649,18.006c0,9.957-16.111,18.039-83.649,18.039c-67.504,0-83.646-8.082-83.646-18.039
		C66.353,198.738,86.104,190.652,149.998,190.652L149.998,190.652z"/>
	<g>
		<g>
			
				<line fill="none" stroke="#6DCECD" stroke-width="7.3131" stroke-linecap="round" stroke-miterlimit="10" x1="119.949" y1="211.432" x2="152.913" y2="159.799"/>
			
				<line fill="none" stroke="#6DCECD" stroke-width="7.3131" stroke-linecap="round" stroke-miterlimit="10" x1="185.871" y1="211.432" x2="152.913" y2="159.799"/>
		</g>
		
			<line fill="none" stroke="#F2F2F2" stroke-width="4.3879" stroke-miterlimit="10" x1="113.177" y1="94.631" x2="140.943" y2="144.086"/>
		
			<line fill="none" stroke="#F2F2F2" stroke-width="4.3879" stroke-miterlimit="10" x1="192.897" y1="94.631" x2="165.126" y2="144.086"/>
		<path fill="#F29232" d="M203.98,159.021c0,28.207-22.865,51.072-51.067,51.072c-28.208,0-51.073-22.865-51.073-51.072
			c0-28.208,22.865-51.072,51.073-51.072C181.115,107.95,203.98,130.814,203.98,159.021z"/>
		<path fill="#E6E6E6" d="M198.205,159.021c0,25.014-20.278,45.287-45.292,45.287c-25.02,0-45.298-20.273-45.298-45.287
			c0-25.014,20.278-45.297,45.298-45.297C177.927,113.724,198.205,134.007,198.205,159.021z"/>
		<path fill="#F2F2F2" d="M193.582,159.021c0,22.463-18.211,40.674-40.669,40.674c-22.469,0-40.68-18.211-40.68-40.674
			c0-22.464,18.211-40.673,40.68-40.673C175.371,118.348,193.582,136.557,193.582,159.021z"/>
		<path fill="#4D4D4D" d="M168.791,177.916c0,0-4.132-9.531-6.732-12.512c-2.596-2.99-9.024-5.605-9.024-5.605
			s1.693,6.727,4.295,9.717C159.924,172.506,168.791,177.916,168.791,177.916z"/>
		<path fill="#4D4D4D" d="M121.952,142.56c0,0,11.838,8.532,16.942,11.25c5.111,2.711,14.019,5.211,14.019,5.211
			s-7.058-5.988-12.162-8.705C135.646,147.605,121.952,142.56,121.952,142.56z"/>
		<path fill="#F29232" d="M157.283,159.021c0,2.414-1.957,4.375-4.37,4.375c-2.419,0-4.375-1.961-4.375-4.375
			c0-2.418,1.956-4.375,4.375-4.375C155.326,154.646,157.283,156.604,157.283,159.021z"/>
		<path fill="#F29232" d="M205.851,114.337c-0.092-7.691-13.344-15.058-15.052-15.975c-1.668-0.988-14.819-8.537-21.45-4.645
			c-7.087,4.162-5.06,8.954-5.06,8.954s8.583,6.397,17.516,11.452l0,0c0.021,0.021,0.046,0.025,0.071,0.04
			c0.021,0.016,0.046,0.025,0.066,0.041l0,0c8.942,5.033,18.849,9.085,18.849,9.085S205.946,122.555,205.851,114.337z"/>
		<path fill="#F29232" d="M100.224,114.337c0.091-7.691,13.344-15.058,15.047-15.975c1.673-0.988,14.823-8.537,21.455-4.645
			c7.082,4.162,5.054,8.954,5.054,8.954s-8.577,6.397-17.51,11.452l0,0c-0.021,0.021-0.046,0.025-0.066,0.04
			c-0.025,0.016-0.051,0.025-0.071,0.041l0,0c-8.947,5.033-18.849,9.085-18.849,9.085S100.127,122.555,100.224,114.337z"/>
		<text transform="matrix(1 0 0 1 145.5869 128.6816)" fill="#F29232" font-family="'ChunkFive'" font-size="14.5163">12</text>
		<text transform="matrix(1 0 0 1 114.3486 163.3779)" fill="#F29232" font-family="'ChunkFive'" font-size="14.5163">9</text>
		<text transform="matrix(1 0 0 1 149.0586 198.3428)" fill="#F29232" font-family="'ChunkFive'" font-size="14.5163">6</text>
		<text transform="matrix(1 0 0 1 184.0186 163.6416)" fill="#F29232" font-family="'ChunkFive'" font-size="14.5163">3</text>
		<path fill="#4D4D4D" d="M136.427,127.092c0.501,0.867,0.207,1.979-0.66,2.484c-0.871,0.497-1.981,0.203-2.483-0.664
			c-0.502-0.872-0.203-1.977,0.664-2.479C134.814,125.932,135.93,126.226,136.427,127.092z"/>
		<path fill="#4D4D4D" d="M122.678,139.614c0.861,0.498,1.16,1.613,0.658,2.48c-0.496,0.867-1.606,1.165-2.479,0.663
			c-0.867-0.501-1.166-1.611-0.664-2.479C120.695,139.407,121.805,139.113,122.678,139.614z"/>
		<path fill="#4D4D4D" d="M169.395,127.092c-0.502,0.867-0.203,1.979,0.659,2.484c0.872,0.497,1.982,0.203,2.484-0.664
			c0.501-0.872,0.202-1.977-0.665-2.479C171.007,125.932,169.896,126.226,169.395,127.092z"/>
		<path fill="#4D4D4D" d="M183.148,139.614c-0.872,0.498-1.166,1.613-0.664,2.48s1.612,1.165,2.479,0.663
			c0.866-0.501,1.16-1.611,0.664-2.479C185.125,139.407,184.016,139.113,183.148,139.614z"/>
		<path fill="#4D4D4D" d="M136.427,190.945c0.501-0.867,0.207-1.973-0.66-2.479c-0.871-0.498-1.981-0.203-2.483,0.668
			c-0.502,0.863-0.203,1.979,0.664,2.475C134.814,192.111,135.93,191.813,136.427,190.945z"/>
		<path fill="#4D4D4D" d="M122.678,178.428c0.861-0.502,1.16-1.611,0.658-2.479c-0.496-0.865-1.606-1.166-2.479-0.664
			c-0.867,0.496-1.166,1.611-0.664,2.479C120.695,178.637,121.805,178.93,122.678,178.428z"/>
		<path fill="#4D4D4D" d="M169.395,190.945c-0.502-0.867-0.203-1.973,0.659-2.479c0.872-0.498,1.982-0.203,2.484,0.668
			c0.501,0.863,0.202,1.979-0.665,2.475C171.007,192.111,169.896,191.813,169.395,190.945z"/>
		<path fill="#4D4D4D" d="M183.148,178.428c-0.872-0.502-1.166-1.611-0.664-2.479c0.502-0.865,1.612-1.166,2.479-0.664
			c0.866,0.496,1.16,1.611,0.664,2.479C185.125,178.637,184.016,178.93,183.148,178.428z"/>
		<path fill="none" stroke="#6DCECD" stroke-width="3.2178" stroke-linecap="round" stroke-miterlimit="10" d="M193.334,98.875
			c0,0-12.543-3.63-12.705-10.723c-0.167-7.099,2.56-14.85-27.843-14.85c-30.408,0-27.681,7.751-27.843,14.85
			c-0.167,7.093-12.71,10.723-12.71,10.723"/>
	</g>
</g>
</svg>
