<?xml version="1.0" encoding="utf-8"?>
<!-- Generator: Adobe Illustrator 16.0.0, SVG Export Plug-In . SVG Version: 6.00 Build 0)  -->
<!DOCTYPE svg PUBLIC "-//W3C//DTD SVG 1.1//EN" "http://www.w3.org/Graphics/SVG/1.1/DTD/svg11.dtd">
<svg version="1.1" id="Layer_1" xmlns="http://www.w3.org/2000/svg" xmlns:xlink="http://www.w3.org/1999/xlink" x="0px" y="0px"
	 width="300px" height="300px" viewBox="0 0 300 300" enable-background="new 0 0 300 300" xml:space="preserve">
<circle fill-rule="evenodd" clip-rule="evenodd" fill="#E0F7FA" cx="150" cy="150" r="130"/>
<circle fill-rule="evenodd" clip-rule="evenodd" fill="#E0F7FA" cx="150" cy="150" r="130"/>
<circle fill-rule="evenodd" clip-rule="evenodd" fill="none" stroke="#80DEEA" stroke-width="5" stroke-miterlimit="10" cx="150" cy="150" r="140"/>
<g>
	<path opacity="0.8" fill-rule="evenodd" clip-rule="evenodd" fill="#B2DFDB" d="M149.998,182.172
		c73.786,0,96.549,9.333,96.549,20.786c0,11.485-18.596,20.819-96.549,20.819c-77.921,0-96.545-9.334-96.545-20.819
		C53.453,191.505,76.25,182.172,149.998,182.172L149.998,182.172z"/>
	<g>
		<g>
			<g id="XMLID_1_">
				<path fill="#F99A64" d="M216.443,120.251c3.279,0,5.951,2.673,5.951,5.957s-2.672,5.957-5.951,5.957
					c-3.289,0-5.963-2.673-5.963-5.957S213.154,120.251,216.443,120.251z"/>
				<path fill="#F99A64" d="M152.274,127.363c3.289,0,5.962,2.673,5.962,5.957c0,3.29-2.673,5.951-5.962,5.951
					c-3.28,0-5.952-2.661-5.952-5.951C146.323,130.036,148.995,127.363,152.274,127.363z"/>
				<path fill="#ED3D25" d="M172.453,185.467v14.277H132.11v-14.277c6.267,2.435,13.063,3.772,20.169,3.772h0.109
					C159.461,189.224,166.221,187.885,172.453,185.467z"/>
				<path fill="#BF3122" d="M172.34,185.467v14.277h-20.065v-10.505C159.348,189.224,166.107,187.885,172.34,185.467z"/>
				<path fill="#4D9FAD" d="M152.274,84.733c-26.787,0-48.582,21.796-48.582,48.587c0,26.786,21.794,48.586,48.582,48.586
					c26.796,0,48.591-21.801,48.591-48.586C200.865,106.529,179.07,84.733,152.274,84.733z M152.274,146.605
					c-7.318,0-13.28-5.962-13.28-13.285c0-7.322,5.962-13.285,13.28-13.285c7.327,0,13.296,5.963,13.296,13.285
					C165.57,140.643,159.602,146.605,152.274,146.605z"/>
				<path fill="#70CDD6" d="M152.274,89.736c-24.061,0-43.579,19.519-43.579,43.584c0,24.065,19.518,43.583,43.579,43.583
					c24.075,0,43.589-19.519,43.589-43.583C195.863,109.254,176.35,89.736,152.274,89.736z M152.274,146.605
					c-7.318,0-13.28-5.962-13.28-13.285c0-7.322,5.962-13.285,13.28-13.285c7.327,0,13.296,5.963,13.296,13.285
					C165.57,140.643,159.602,146.605,152.274,146.605z"/>
				<path fill="#FFCB63" d="M229.723,126.208c0,6.146-4.195,11.328-9.869,12.841c-0.971,11.751-4.971,22.964-11.691,32.72
					c-7.16,10.386-16.934,18.494-28.387,23.568v6c0,3.159-2.574,5.729-5.734,5.729h-43.523c-3.166,0-5.735-2.569-5.735-5.729
					v-19.346c-16.955-9.62-28.424-27.832-28.424-48.672c0-30.835,25.09-55.914,55.916-55.914c25.507,0,47.079,17.16,53.774,40.543
					c2.438-3.058,6.184-5.024,10.395-5.024C223.768,112.924,229.723,118.88,229.723,126.208z M222.395,126.208
					c0-3.284-2.672-5.957-5.951-5.957c-3.289,0-5.963,2.673-5.963,5.957s2.674,5.957,5.963,5.957
					C219.723,132.166,222.395,129.493,222.395,126.208z M212.514,138.903c-1.631-0.51-3.121-1.312-4.412-2.363
					c-1.117,19.491-12.248,36.336-28.326,45.453v5.22C198.34,177.776,210.629,159.64,212.514,138.903z M200.865,133.32
					c0-26.791-21.795-48.587-48.591-48.587c-26.787,0-48.582,21.796-48.582,48.587c0,26.786,21.794,48.586,48.582,48.586
					C179.07,181.906,200.865,160.105,200.865,133.32z M172.453,199.744v-14.277c-6.266,2.435-13.063,3.772-20.179,3.772
					c-7.101,0-13.897-1.338-20.164-3.772v14.277H172.453z"/>
				<path fill="#1C4B65" d="M152.274,120.035c7.327,0,13.296,5.963,13.296,13.285c0,7.323-5.969,13.285-13.296,13.285
					c-7.318,0-13.28-5.962-13.28-13.285C138.994,125.998,144.957,120.035,152.274,120.035z M158.236,133.32
					c0-3.284-2.673-5.957-5.962-5.957c-3.28,0-5.952,2.673-5.952,5.957c0,3.29,2.672,5.951,5.952,5.951
					C155.563,139.271,158.236,136.61,158.236,133.32z"/>
			</g>
		</g>
		<g>
			<path fill="#FFFFFF" d="M115.623,135.216c-0.049,0-0.108,0-0.152,0c-1.685-0.081-2.98-1.512-2.904-3.197
				c1.257-25.995,23.214-35.903,24.141-36.315c1.55-0.677,3.35,0.027,4.028,1.572c0.671,1.539-0.027,3.344-1.567,4.021
				c-0.813,0.357-19.431,8.889-20.499,31.015C118.587,133.949,117.238,135.216,115.623,135.216z"/>
		</g>
		<path fill="#FFFFFF" d="M119.086,142.573c0,1.565-1.274,2.84-2.84,2.84c-1.566,0-2.84-1.274-2.84-2.84
			c0-1.572,1.274-2.846,2.84-2.846C117.812,139.727,119.086,141,119.086,142.573z"/>
		<g>
			<g>
				<g>
					<path fill="#ED3D25" d="M211.066,102.333c-0.318,0-0.633-0.173-0.803-0.482c-2.605-4.818-5.832-9.317-9.576-13.366
						c-3.756-4.049-7.996-7.604-12.604-10.575c-0.422-0.271-0.547-0.84-0.27-1.268c0.27-0.423,0.84-0.548,1.262-0.271
						c4.738,3.046,9.096,6.705,12.949,10.868c3.859,4.162,7.172,8.786,9.85,13.745c0.244,0.444,0.07,0.997-0.365,1.241
						C211.365,102.294,211.219,102.333,211.066,102.333z"/>
				</g>
				<g>
					<path fill="#ED3D25" d="M205.695,105.238c-0.324,0-0.639-0.173-0.803-0.477c-2.367-4.374-5.289-8.45-8.688-12.125
						c-3.41-3.675-7.248-6.9-11.426-9.595c-0.424-0.271-0.549-0.839-0.271-1.262c0.271-0.429,0.834-0.548,1.262-0.271
						c4.311,2.77,8.271,6.092,11.779,9.881c3.502,3.789,6.521,7.989,8.953,12.494c0.24,0.45,0.076,1.002-0.367,1.246
						C205.994,105.206,205.842,105.238,205.695,105.238z"/>
				</g>
			</g>
			<g>
				<g>
					<path fill="#ED3D25" d="M115.98,190.416c-0.174,0-0.347-0.049-0.499-0.146c-4.737-3.052-9.089-6.705-12.944-10.873
						c-3.858-4.163-7.176-8.781-9.854-13.74c-0.238-0.444-0.064-0.997,0.374-1.241c0.44-0.244,1.003-0.07,1.241,0.374
						c2.602,4.818,5.821,9.317,9.583,13.366c3.746,4.049,7.984,7.604,12.596,10.569c0.423,0.276,0.543,0.846,0.271,1.269
						C116.571,190.27,116.278,190.416,115.98,190.416z"/>
				</g>
				<g>
					<path fill="#ED3D25" d="M119.287,185.277c-0.174,0-0.341-0.043-0.499-0.141c-4.303-2.775-8.271-6.104-11.772-9.887
						c-3.501-3.788-6.52-7.989-8.965-12.493c-0.228-0.45-0.065-1.003,0.379-1.247c0.444-0.238,0.997-0.07,1.247,0.374
						c2.353,4.369,5.279,8.444,8.683,12.119c3.404,3.676,7.241,6.9,11.426,9.589c0.423,0.276,0.542,0.84,0.271,1.269
						C119.883,185.131,119.584,185.277,119.287,185.277z"/>
				</g>
			</g>
		</g>
	</g>
</g>
</svg>
