<?xml version="1.0" encoding="utf-8"?>
<!-- Generator: Adobe Illustrator 16.0.0, SVG Export Plug-In . SVG Version: 6.00 Build 0)  -->
<!DOCTYPE svg PUBLIC "-//W3C//DTD SVG 1.1//EN" "http://www.w3.org/Graphics/SVG/1.1/DTD/svg11.dtd">
<svg version="1.1" id="Layer_1" xmlns="http://www.w3.org/2000/svg" xmlns:xlink="http://www.w3.org/1999/xlink" x="0px" y="0px"
	 width="300px" height="300px" viewBox="0 0 300 300" enable-background="new 0 0 300 300" xml:space="preserve">
<circle fill-rule="evenodd" clip-rule="evenodd" fill="#E0F7FA" cx="150" cy="150" r="130"/>
<circle fill-rule="evenodd" clip-rule="evenodd" fill="#E0F7FA" cx="150" cy="150" r="130"/>
<circle fill-rule="evenodd" clip-rule="evenodd" fill="none" stroke="#80DEEA" stroke-width="5" stroke-miterlimit="10" cx="150" cy="150" r="140"/>
<g>
	<path opacity="0.8" fill-rule="evenodd" clip-rule="evenodd" fill="#B2DFDB" d="M149.995,186.68
		c70.285,0,91.973,8.891,91.973,19.801c0,10.938-17.718,19.83-91.973,19.83c-74.215,0-91.963-8.893-91.963-19.83
		C58.032,195.57,79.745,186.68,149.995,186.68L149.995,186.68z"/>
	<g>
		<g>
			<linearGradient id="SVGID_1_" gradientUnits="userSpaceOnUse" x1="164.5723" y1="211.7656" x2="195.6058" y2="197.4824">
				<stop  offset="0" style="stop-color:#EFB89A"/>
				<stop  offset="1" style="stop-color:#FCE0D2"/>
			</linearGradient>
			<path fill="url(#SVGID_1_)" d="M157.145,205.348c0,0-2.743,10.129,11.675,8.24c0,0,1.722,2.49,7.219,1.975
				c0,0,6.259,5.752,9.612,1.971c0,0,5.317-6.348,5.488-15.619c0,0,3.523-1.922,2.222-3.83c0,0-0.9-1.006-1.963,0
				c0,0-0.3-5.082-3.063-2.111c0,0-0.601-5.428-3.874-1.859c0,0-1.902-4.225-3.966,0.25c0,0-0.354-4.475-3.574-4.023
				c0,0-3.314,0.205-2.663,7.088C174.257,197.428,164.459,191.736,157.145,205.348z"/>
			<path fill="#E8B69A" d="M174.257,197.428c0,0,0.104,2.564,1.256,4.127c0,0,1.427,1.857-0.22,6.883c0,0-1.106,2.988,0.745,7.125
				c0,0-3.084-2.805-0.971-9.488c0,0,0.471-2.389-0.636-4.045C174.432,202.029,173.074,199.865,174.257,197.428z"/>
			<path fill="#E8B69A" d="M179.242,197.428c0,0,5.116-0.611,7.631,3.631C186.873,201.059,182.887,197.658,179.242,197.428z"/>
			<path fill="#E8B69A" d="M193.015,197.814c0.005,0.004,0.997,1.627-2.418,3.635c0,0-0.941,13.592-8.03,17.361
				c1.111,0.049,2.192-0.281,3.084-1.277c0,0,5.317-6.348,5.488-15.619c0,0,3.523-1.922,2.222-3.83
				C193.36,198.084,193.235,197.939,193.015,197.814z"/>
			<linearGradient id="SVGID_2_" gradientUnits="userSpaceOnUse" x1="136.2002" y1="215.0791" x2="106.4218" y2="198.8912">
				<stop  offset="0" style="stop-color:#EFB89A"/>
				<stop  offset="1" style="stop-color:#FCE0D2"/>
			</linearGradient>
			<path fill="url(#SVGID_2_)" d="M139.962,205.348c0,0,2.744,10.129-11.68,8.24c0,0-1.717,2.49-7.204,1.975
				c0,0-6.273,5.752-9.622,1.971c0,0-5.317-6.348-5.487-15.619c0,0-3.53-1.922-2.223-3.83c0,0,0.906-1.006,1.957,0
				c0,0,0.306-5.082,3.064-2.111c0,0,0.611-5.428,3.875-1.859c0,0,1.908-4.225,3.971,0.25c0,0,0.35-4.475,3.569-4.023
				c0,0,3.319,0.205,2.668,7.088C122.85,197.428,132.652,191.736,139.962,205.348z"/>
			<path fill="#E8B69A" d="M122.85,197.428c0,0-0.109,2.564-1.261,4.127c0,0-1.422,1.857,0.22,6.883c0,0,1.111,2.988-0.731,7.125
				c0,0,3.079-2.805,0.961-9.488c0,0-0.471-2.389,0.631-4.045C122.67,202.029,124.026,199.865,122.85,197.428z"/>
			<path fill="#E8B69A" d="M117.864,197.428c0,0-5.117-0.611-7.63,3.631C110.234,201.059,114.214,197.658,117.864,197.428z"/>
			<path fill="#E8B69A" d="M104.092,197.814c0,0.004-0.998,1.627,2.418,3.635c0,0,0.936,13.592,8.03,17.361
				c-1.117,0.049-2.203-0.281-3.083-1.277c0,0-5.317-6.348-5.487-15.619c0,0-3.53-1.922-2.223-3.83
				C103.746,198.084,103.876,197.939,104.092,197.814z"/>
			<path fill="#70CDD6" d="M171.498,184c0,0,2.468,2.746,3.269,7.209c0,0-0.9,3.42-0.51,5.688c0,0-6.989-0.177-11.295,4.919
				c0,0-3.635,4.401-4.411,9.628c0,0-0.926,2.391-9.462,2.391c0,0-10.288,0.8-10.749-2.089c0,0-0.295-12.021-15.49-14.33
				c0,0,0.281-3.174-0.17-5.162c0,0,1.352-8.253,4.846-8.253H171.498z"/>
			<path fill="#E5E6E7" d="M149.089,213.908c8.536,0,9.462-2.316,9.462-2.316c0.776-5.229,4.411-9.492,4.411-9.492
				c4.306-5.092,11.295-4.621,11.295-4.621s-8.097-3.08-15.33,9.016c0,0-2.313,5.963-9.553,5.963c0,0-8.256,0-9.612-2.863
				c0,0-3.334-12.512-16.912-12.16c15.195,2.307,15.49,14.348,15.49,14.348C138.801,214.67,149.089,213.908,149.089,213.908z"/>
			
				<linearGradient id="SVGID_3_" gradientUnits="userSpaceOnUse" x1="359.0566" y1="230.7383" x2="350.2311" y2="143.4649" gradientTransform="matrix(0.9999 -0.0113 0.0113 0.9999 -207.6685 -11.1733)">
				<stop  offset="0" style="stop-color:#FCCEB2"/>
				<stop  offset="1" style="stop-color:#FCE0D2"/>
			</linearGradient>
			<path fill="url(#SVGID_3_)" d="M134.484,157.342c-15.068,24.266-2.343,42.785-2.343,42.785c-0.255,3.229,0.632,6.203,0.632,6.203
				c-2.844,5.281-1.212,6.184-1.212,6.184c1.342,1.01,3.145-2.289,3.145-2.289c-0.932,4.596,0.561,4.686,0.561,4.686
				c1.582,0.48,2.603-3.93,2.603-3.93c1.322,6.85,3.75,5.447,3.75,5.447c2.192-0.701-0.425-7.225-0.425-7.225
				c2.272,4.611,4.386,3.045,4.386,3.045c1.361-0.826,0.22-2.35,0.22-2.35l-3.695-5.537c5.598-0.85,4.506-3.863,4.506-3.863
				c-0.94-3.189-3.179-1.172-3.179-1.172c-1.262,1.391-2.954,0.414-2.954,0.414c-1.23-3.703-2.778-9.656-2.788-13.057
				c0,0,14.368,2.408,25.132-0.389c1.012,6.557-1.792,14.213-1.792,14.213c-0.621,1.316-2.469-0.316-2.469-0.316
				c-2.348-2.232-3.329,0.316-3.329,0.316c-0.775,2.172,2.895,3.184,2.895,3.184c2.042,0.752,0.295,1.723,0.295,1.723
				c-7.204,4.17-5.031,5.957-5.031,5.957c0.701,1.15,4.485-0.881,4.485-0.881c-3.294,5.873-1.401,6.354-1.401,6.354
				c1.377,1.205,4.746-4.176,4.746-4.176c-0.15,3.789,1.237,3.465,1.237,3.465c1.722,0.279,1.876-4.121,1.876-4.121
				c1.082,3.811,2.229,2.729,2.229,2.729c1.646-0.416,1.026-5.643,1.026-5.643c1.852-4.494,0.505-6.102,0.505-6.102
				c13.397-23.582-3.229-46.861-3.229-46.861"/>
			<linearGradient id="SVGID_4_" gradientUnits="userSpaceOnUse" x1="146.6074" y1="161.166" x2="146.5114" y2="160.2162">
				<stop  offset="0" style="stop-color:#FCCEB2"/>
				<stop  offset="1" style="stop-color:#FCE0D2"/>
			</linearGradient>
			<line fill="url(#SVGID_4_)" x1="142.636" y1="161.588" x2="150.516" y2="160.115"/>
			
				<linearGradient id="SVGID_5_" gradientUnits="userSpaceOnUse" x1="208.4131" y1="46.666" x2="206.7838" y2="30.5546" gradientTransform="matrix(0.8348 0.5505 -0.5505 0.8348 -1.9141 6.9492)">
				<stop  offset="0" style="stop-color:#FCCEB2"/>
				<stop  offset="1" style="stop-color:#FCE0D2"/>
			</linearGradient>
			<line fill="url(#SVGID_5_)" x1="160.694" y1="155.635" x2="137.039" y2="156.135"/>
			<g>
				<g>
					
						<linearGradient id="SVGID_6_" gradientUnits="userSpaceOnUse" x1="200.8838" y1="97.5103" x2="190.2663" y2="6.266" gradientTransform="matrix(0.9657 0.2597 -0.2597 0.9657 -24.0244 18.4883)">
						<stop  offset="0" style="stop-color:#FCCEB2"/>
						<stop  offset="1" style="stop-color:#FCE0D2"/>
					</linearGradient>
					<path fill="url(#SVGID_6_)" d="M192.35,127.088c-1.231-0.541-2.608-0.466-3.896,0.09c0.661-17.954-10.844-34.555-28.616-39.335
						c-20.727-5.573-42.134,7.039-47.821,28.166c-1.182,4.396-1.583,8.811-1.313,13.102c-1.387-0.762-2.934-0.951-4.31-0.375
						c-2.793,1.171-3.85,5.027-2.354,8.611c1.497,3.585,4.987,5.543,7.785,4.371c0.551-0.23,1.026-0.566,1.427-0.977
						c4.311,11.246,13.643,20.296,26.014,23.621c19.595,5.271,39.795-5.713,46.745-24.777c0.21,0.145,0.439,0.275,0.681,0.385
						c2.783,1.222,6.288-0.676,7.859-4.235C196.114,132.18,195.127,128.305,192.35,127.088z"/>
					<path fill="#E8B69A" d="M113.253,140.741c4.311,11.246,13.643,20.296,26.014,23.621c19.595,5.271,39.795-5.713,46.745-24.777
						c0,0-12.386,31.189-46.02,23.851C139.992,163.436,122.114,160.881,113.253,140.741z"/>
					<path fill="#CE977C" d="M190.106,130.222c-0.41-0.18-0.856-0.214-1.297-0.134c-0.226,1.992-0.601,3.99-1.146,5.987
						c-0.034,0.135-0.075,0.271-0.109,0.406c1.306,0.439,2.894-0.461,3.609-2.099C191.918,132.67,191.443,130.808,190.106,130.222z"
						/>
					<path fill="#CE977C" d="M109.944,131.814c-0.456-0.11-0.926-0.085-1.362,0.095c-1.341,0.566-1.852,2.418-1.131,4.14
						c0.721,1.728,2.397,2.664,3.74,2.104c0.064-0.026,0.125-0.061,0.185-0.091C110.735,136.035,110.255,133.942,109.944,131.814z"
						/>
					<path d="M134.02,124.08c0,0-2.397-5.367-9.557,2.694C124.462,126.773,129.99,122.637,134.02,124.08z"/>
					<path fill="#CE977C" d="M148.668,131.58c0,0,8.626,7.589-2.428,9.031C146.24,140.611,153.18,139.048,148.668,131.58z"/>
					<path d="M163.894,125.01c0,0,1.196-5.752,9.912,0.601C173.806,125.611,167.528,122.742,163.894,125.01z"/>
				</g>
				<g>
					<path fill="#616161" d="M110.79,134.353c-0.005-0.015-0.811-6.994,4.521-16.667c0,0,1.922,2.438,5.256,3.109
						c0,0-1.332-5.011-1.372-7.735c0,0,6.569,8.332,21.313,10.995c0,0-4.55-4.411-5.361-10.118c0,0,6.278,3.294,10.103,7.029
						l-2.343-5.197c0,0,12.275,4.886,19.825,3.78l-5.026-4.14c0,0,11.414,5.347,13.713,7.82l-4.762-7.148
						c0,0,18.679,0.04,17.863,7.744c0,0,1.492,12.421,1.492,12.427c-0.102-2.654,0.274-5.713,2.272-7.665
						c2.213-2.153,2.273,0.74,4.095-2.309c3.716-6.228-0.181-23.535-7.113-28.071c0.956,0.446,1.736,0.556,2.563,1.097
						c-3.471-6.829-9.979-15.165-18.229-16.081c1.306-0.335,1.797-0.69,3.304-0.686c-8.15-2.789-16.682-7.519-25.772-5.702
						c0.26-0.636,0.28-1.558,0.511-2.108c-4.396,1.522-8.867,2.935-13.328,3.9c-4.29,0.936-9.747,3.495-13.978,3.776
						c0.821-0.056,1.637,0.139,2.454,0.125c-8.706,3.95-14.664,9.833-16.857,19.62c0.461-0.46,1.036-0.801,1.427-1.116
						c-2.563,2.072-2.053,13.176-1.628,16.17C106.529,122.882,109.008,128.916,110.79,134.353z"/>
					<path fill="#454C53" d="M110.79,133.316c-0.005-0.015-0.811-6.999,4.521-16.672c0,0,1.922,2.444,5.256,3.114
						c0,0-1.332-5.011-1.372-7.734c0,0,6.569,8.331,21.313,10.993c0,0-4.55-4.415-5.361-10.122c0,0,6.278,3.293,10.103,7.028
						l-2.343-5.191c0,0,12.275,4.886,19.825,3.775l-5.026-4.135c0,0,11.414,5.347,13.713,7.815l-4.762-7.145
						c0,0,18.679,0.036,17.863,7.74l1.492,12.426c-0.102-2.648,0.274-5.707,2.272-7.665c2.213-2.157,2.273,0.741,4.095-2.308
						c3.716-6.228-0.181-23.535-7.113-28.066c0.956,0.441,1.736,0.556,2.563,1.092c-3.471-6.829-9.979-15.16-18.229-16.076
						c1.306-0.335,1.797-0.69,3.304-0.69c-8.15-2.784-16.682-7.52-25.772-5.703c0.26-0.635,0.28-1.552,0.511-2.102
						c-4.396,1.517-8.867,2.929-13.328,3.9c-4.29,0.931-9.747,3.49-13.978,3.77c0.821-0.055,1.637,0.145,2.454,0.125
						c-8.706,3.95-14.664,9.838-16.857,19.62c0.461-0.46,1.036-0.802,1.427-1.112c-2.563,2.073-2.053,13.177-1.628,16.171
						C106.529,121.846,109.008,127.874,110.79,133.316z"/>
					<path fill="#616161" d="M139.046,122.022c0,0-13.692-5.478-19.279-19.214C119.767,102.808,114.63,114.587,139.046,122.022z"/>
					<path fill="#616161" d="M143.907,117.796c0,0-8.811-7.5-15.69-7.745C128.217,110.051,134.455,104.609,143.907,117.796z"/>
					<path fill="#616161" d="M108.632,105.07c0,0,2.303-11.985,13.057-20.481c0,0-4.906,6.163-5.733,10.078l2.999-3.984
						c0,0-4.606,7.86-4.31,12.69l-0.466-5.466c0,0-5.308,6.548-5.753,10.503L108.632,105.07z"/>
					<path fill="#616161" d="M188.284,127.543c2.213-2.157,2.273,0.741,4.095-2.308c3.716-6.228-0.181-23.535-7.113-28.066
						c0.956,0.441,1.736,0.556,2.563,1.092c-3.471-6.829-9.979-15.16-18.229-16.076c1.306-0.335,1.797-0.69,3.304-0.69
						c-3.58-1.222-7.224-2.813-10.959-4.07c0.726,0.556,1.462,1.112,2.208,1.642c2.163,1.547,1.652,2.849,3.85,4.245
						c2.653,1.522,5.191,3.485,7.569,5.417c1.817,1.617,4.141,3.205,4.542,5.893c0.555,2.724-1.353,3.824-0.341,6.673
						c0.78,2.468,3.604,5.156,3.214,7.794c-0.45,2.293-3.109,3.189-5.237,3.91c-2.208,1.017-4.216,1.282-6.777,1.237
						c-1.583-0.105-5.107-1.371-6.539,0.335c-0.911,0.916-0.33,2.193,0.541,3.464c2.748,1.477,5.446,3.084,6.443,4.15l-4.762-7.145
						c0,0,18.679,0.036,17.863,7.74l1.492,12.426C185.91,132.56,186.286,129.501,188.284,127.543z"/>
					<path fill="#616161" d="M159.968,117.326c0,0-13.857-4.196-21.347-20.897C138.621,96.429,140.833,115.879,159.968,117.326z"/>
				</g>
				<g>
					<path fill-rule="evenodd" clip-rule="evenodd" fill="#9B0000" d="M149.8,144.42c-4.592,0.025-10.964,3.099-11.329,7.99
						c-0.131,1.783,1.021,4.557,3.674,4.928c4.315,0.605,5.518-1.367,7.775-1.393c2.253,0.02,3.479,1.998,7.806,1.393
						c2.653-0.371,3.805-3.145,3.68-4.928C161.034,147.519,154.466,144.395,149.8,144.42z"/>
					<path fill-rule="evenodd" clip-rule="evenodd" fill="#330000" d="M144.138,154.652c0-2.682,1.462-4.99,3.516-5.926
						c2.061-0.937,0.895-0.011,0.98,0.73c0,0.696,0.49,1.257,1.102,1.257c0.604,0,1.091-0.561,1.101-1.257
						c-0.01-0.53-1.087-1.667,0.7-0.841c2.144,0.981,3.786,3.234,3.786,6.037c0,0.963-0.186,1.879-0.521,2.699
						c-2.144-0.34-3.234-1.391-4.882-1.406c-1.737,0.016-2.849,1.191-5.231,1.451C144.337,156.57,144.138,155.639,144.138,154.652z"
						/>
					<path fill-rule="evenodd" clip-rule="evenodd" fill="#EA537E" d="M144.549,157.047c-0.021-0.125-0.021-0.25-0.021-0.377
						c0-1.881,1.417-3.404,3.155-3.404c0.795,0,1.521,0.313,2.072,0.822c0.551-0.51,1.277-0.822,2.063-0.822
						c1.742,0,3.164,1.523,3.164,3.404c0,0.066,0,0.137-0.005,0.207c-0.051,0.16-0.115,0.32-0.175,0.475
						c-2.144-0.34-3.234-1.391-4.882-1.406c-1.737,0.016-2.849,1.191-5.231,1.451C144.639,157.287,144.588,157.168,144.549,157.047z
						"/>
					<g>
						<path fill-rule="evenodd" clip-rule="evenodd" fill="#FFFFFF" d="M147.497,156.396l-0.111-1.453
							c-0.02-0.215,0.146-0.41,0.356-0.439l1.377-0.15c0.22-0.025,0.405,0.129,0.426,0.35l0.1,1.258
							c-0.746,0.059-1.387,0.324-2.083,0.615C147.526,156.521,147.501,156.455,147.497,156.396z"/>
						<path fill-rule="evenodd" clip-rule="evenodd" fill="#FFFFFF" d="M150.006,155.951l0.029-0.383
							c0.016-0.215,0.2-0.373,0.421-0.35l1.371,0.156c0.221,0.023,0.382,0.221,0.361,0.439l-0.05,0.695
							C151.427,156.221,150.771,155.971,150.006,155.951z"/>
					</g>
				</g>
				<g>
					<path fill-rule="evenodd" clip-rule="evenodd" fill="#CE977C" d="M137.334,131.303c-2.914-0.214-5.872,0.07-8.626,0.696
						c-0.585,0.131-0.511-0.139-0.17-0.375c1.762-1.211,3.725-1.767,6.279-1.416c-2.243-1.161-4.907-2.183-7.49-2.749
						c-0.731-0.156-0.44-0.516,0.13-0.596C132.553,126.137,137.299,130.157,137.334,131.303z"/>
					<path fill-rule="evenodd" clip-rule="evenodd" fill="#CE977C" d="M161.109,131.389c2.929-0.165,5.878,0.175,8.621,0.841
						c0.591,0.145,0.511-0.129,0.175-0.37c-1.737-1.243-3.694-1.833-6.253-1.528c2.264-1.122,4.946-2.092,7.54-2.618
						c0.73-0.145,0.45-0.506-0.115-0.596C165.985,126.302,161.17,130.248,161.109,131.389z"/>
				</g>
				<g>
					<path fill-rule="evenodd" clip-rule="evenodd" fill="#82C3E0" d="M127.442,132.64c0,0-6.354,1.062-3.73,3.611
						C124.993,137.492,125.534,133.906,127.442,132.64z"/>
					<path fill-rule="evenodd" clip-rule="evenodd" fill="#A9DAF5" d="M126.58,132.886c0,0-4.485,0.75-2.639,2.543
						C124.853,136.31,125.233,133.777,126.58,132.886z"/>
				</g>
				<g>
					<path fill-rule="evenodd" clip-rule="evenodd" fill="#82C3E0" d="M126.045,136.86c0,0-3.896,5.132-0.241,5.188
						C127.587,142.078,125.514,139.098,126.045,136.86z"/>
					<path fill-rule="evenodd" clip-rule="evenodd" fill="#A9DAF5" d="M125.584,137.626c0,0-2.753,3.624-0.171,3.664
						C126.676,141.312,125.213,139.204,125.584,137.626z"/>
				</g>
				<g>
					<path fill-rule="evenodd" clip-rule="evenodd" fill="#82C3E0" d="M170.962,130.112c0,0,3.885,5.13,0.24,5.181
						C169.41,135.324,171.488,132.345,170.962,130.112z"/>
					<path fill-rule="evenodd" clip-rule="evenodd" fill="#A9DAF5" d="M171.423,130.878c0,0,2.743,3.624,0.171,3.665
						C170.331,134.558,171.793,132.455,171.423,130.878z"/>
				</g>
			</g>
			<path fill="#FFFFFF" d="M155.502,197.529c-1.136,0.359-2.813-0.076-3.755-0.736c-1.187-0.852,0.267-2.43-0.515-3.234
				c-1.818-1.867,0.455-4.025,1.856-5.418c2.213-2.213,1.708,0.551,0.661,1.213c-0.901,0.561-1.731,1.176-2.693,1.65
				c-1.482,0.723-3.685-0.719-5.042-1.326c-1.001-0.439-1.076-1.01-0.135-0.375c0.751,0.506,1.492,1.021,2.223,1.553
				c1.923,1.396-0.631,2.217-0.786,3.383c-0.085,0.631-0.146,0.445,0.135,0.947c0.466,0.811-0.665,1.967-1.051,2.572
				c-0.245,0.387,0.761,0.281,0.931,0.012c0.576-0.902,1.522-1.738,1.122-2.854c-0.591-1.668,1.803-1.822,1.542-3.115
				c-0.281-1.381-2.143-2.117-3.184-2.885c-0.541-0.398-1.313-0.885-2.023-0.699c-2.563,0.689,1.542,2.402,2.188,2.658
				c0.985,0.381,1.816,1.156,2.934,1.012c1.246-0.166,2.528-0.928,3.54-1.639c0.159-0.115,4.79-3.178,2.263-3.334
				c-2.789-0.17-4.246,1.893-5.817,3.881c-0.651,0.811-0.621,2.133,0.1,2.844c0.941,0.92-0.186,2.492,0.821,3.539
				c1.001,1.037,3.504,1.246,4.815,0.826C156.213,197.818,156.098,197.338,155.502,197.529L155.502,197.529z"/>
			<path fill="#E8B69A" d="M158.657,173.031c0,0.391-0.322,0.707-0.701,0.707c-0.391,0-0.712-0.316-0.712-0.707
				s0.321-0.701,0.712-0.701C158.335,172.33,158.657,172.641,158.657,173.031z"/>
			<path fill="#E8B69A" d="M142.246,173.838c0,0.385-0.312,0.701-0.701,0.701c-0.386,0-0.702-0.316-0.702-0.701
				c0-0.391,0.316-0.707,0.702-0.707C141.935,173.131,142.246,173.447,142.246,173.838z"/>
			<path fill="none" stroke="#E8B69A" stroke-width="0.5194" stroke-miterlimit="10" d="M162.821,186.295
				c0,0,0.57-6.154-1.497-11.756"/>
			<path fill="none" stroke="#E8B69A" stroke-width="0.5194" stroke-miterlimit="10" d="M138.025,186.814
				c0,0-0.576-6.152,1.496-11.754"/>
			<g opacity="0.6">
				<path opacity="0" fill="#FCE0D2" d="M140.077,140.696c0,3.009-4.485,5.447-10.018,5.447c-5.536,0-10.022-2.438-10.022-5.447
					s4.486-5.453,10.022-5.453C135.592,135.243,140.077,137.687,140.077,140.696z"/>
				<path opacity="0.0385" fill="#FCDED1" d="M139.775,140.696c0,2.927-4.35,5.3-9.716,5.3c-5.369,0-9.72-2.373-9.72-5.3
					c0-2.928,4.351-5.306,9.72-5.306C135.425,135.391,139.775,137.769,139.775,140.696z"/>
				<path opacity="0.0769" fill="#FCDCD0" d="M139.473,140.696c0,2.846-4.215,5.153-9.414,5.153c-5.202,0-9.418-2.307-9.418-5.153
					c0-2.846,4.216-5.158,9.418-5.158C135.258,135.538,139.473,137.85,139.473,140.696z"/>
				<ellipse opacity="0.1154" fill="#FCDBCF" cx="130.057" cy="140.695" rx="9.114" ry="5.006"/>
				<ellipse opacity="0.1538" fill="#FCD9CE" cx="130.058" cy="140.696" rx="8.812" ry="4.858"/>
				<ellipse opacity="0.1923" fill="#FBD7CE" cx="130.058" cy="140.696" rx="8.509" ry="4.712"/>
				<ellipse opacity="0.2308" fill="#FBD5CD" cx="130.058" cy="140.696" rx="8.207" ry="4.564"/>
				<ellipse opacity="0.2692" fill="#FBD4CC" cx="130.057" cy="140.696" rx="7.905" ry="4.417"/>
				<ellipse opacity="0.3077" fill="#FBD2CB" cx="130.058" cy="140.696" rx="7.603" ry="4.271"/>
				<ellipse opacity="0.3462" fill="#FBD0CA" cx="130.058" cy="140.696" rx="7.3" ry="4.123"/>
				<ellipse opacity="0.3846" fill="#FBCEC9" cx="130.058" cy="140.696" rx="6.998" ry="3.976"/>
				<ellipse opacity="0.4231" fill="#FBCDC8" cx="130.058" cy="140.695" rx="6.696" ry="3.829"/>
				<ellipse opacity="0.4615" fill="#FBCBC7" cx="130.058" cy="140.696" rx="6.394" ry="3.682"/>
				<ellipse opacity="0.5" fill="#FBC9C7" cx="130.059" cy="140.696" rx="6.092" ry="3.534"/>
				<path opacity="0.5385" fill="#FAC7C6" d="M135.848,140.696c0,1.868-2.594,3.388-5.789,3.388c-3.196,0-5.791-1.52-5.791-3.388
					c0-1.872,2.594-3.388,5.791-3.388C133.254,137.308,135.848,138.824,135.848,140.696z"/>
				<path opacity="0.5769" fill="#FAC5C5" d="M135.546,140.696c0,1.787-2.459,3.241-5.486,3.241c-3.03,0-5.488-1.454-5.488-3.241
					c0-1.79,2.458-3.24,5.488-3.24C133.087,137.456,135.546,138.906,135.546,140.696z"/>
				<path opacity="0.6154" fill="#FAC4C4" d="M135.244,140.696c0,1.705-2.323,3.093-5.185,3.093c-2.862,0-5.186-1.388-5.186-3.093
					c0-1.709,2.324-3.093,5.186-3.093C132.92,137.603,135.244,138.987,135.244,140.696z"/>
				<path opacity="0.6538" fill="#FAC2C3" d="M134.941,140.696c0,1.624-2.188,2.946-4.882,2.946c-2.695,0-4.884-1.322-4.884-2.946
					c0-1.628,2.188-2.945,4.884-2.945C132.753,137.751,134.941,139.068,134.941,140.696z"/>
				<path opacity="0.6923" fill="#FAC0C2" d="M134.64,140.696c0,1.542-2.054,2.799-4.581,2.799c-2.528,0-4.581-1.257-4.581-2.799
					c0-1.546,2.053-2.797,4.581-2.797C132.586,137.898,134.64,139.149,134.64,140.696z"/>
				<path opacity="0.7308" fill="#FABEC1" d="M134.338,140.696c0,1.461-1.918,2.651-4.278,2.651c-2.361,0-4.279-1.19-4.279-2.651
					c0-1.466,1.918-2.65,4.279-2.65C132.419,138.046,134.338,139.23,134.338,140.696z"/>
				<path opacity="0.7692" fill="#FABDC0" d="M134.035,140.696c0,1.379-1.783,2.504-3.976,2.504c-2.194,0-3.977-1.125-3.977-2.504
					c0-1.384,1.783-2.502,3.977-2.502C132.252,138.193,134.035,139.312,134.035,140.696z"/>
				<path opacity="0.8077" fill="#FABBBF" d="M133.733,140.696c0,1.298-1.648,2.357-3.673,2.357c-2.027,0-3.675-1.059-3.675-2.357
					c0-1.303,1.648-2.355,3.675-2.355C132.085,138.341,133.733,139.393,133.733,140.696z"/>
				<path opacity="0.8462" fill="#F9B9BF" d="M133.431,140.696c0,1.216-1.512,2.21-3.372,2.21s-3.372-0.995-3.372-2.21
					c0-1.222,1.513-2.208,3.372-2.208S133.431,139.475,133.431,140.696z"/>
				<path opacity="0.8846" fill="#F9B7BE" d="M133.129,140.696c0,1.135-1.377,2.063-3.069,2.063c-1.693,0-3.07-0.928-3.07-2.063
					c0-1.14,1.377-2.06,3.07-2.06C131.751,138.636,133.129,139.556,133.129,140.696z"/>
				<path opacity="0.9231" fill="#F9B6BD" d="M132.827,140.696c0,1.054-1.242,1.917-2.768,1.917c-1.525,0-2.767-0.863-2.767-1.917
					c0-1.059,1.242-1.912,2.767-1.912C131.584,138.784,132.827,139.637,132.827,140.696z"/>
				<path opacity="0.9615" fill="#F9B4BC" d="M132.525,140.696c0,0.972-1.107,1.769-2.465,1.769c-1.359,0-2.465-0.797-2.465-1.769
					c0-0.978,1.106-1.765,2.465-1.765C131.417,138.931,132.525,139.718,132.525,140.696z"/>
				<path fill="#F9B2BB" d="M132.223,140.696c0,0.891-0.972,1.622-2.164,1.622c-1.191,0-2.163-0.731-2.163-1.622
					c0-0.896,0.972-1.617,2.163-1.617C131.25,139.079,132.223,139.799,132.223,140.696z"/>
			</g>
			<g opacity="0.6">
				<path opacity="0" fill="#FCE0D2" d="M177.986,140.696c0,3.009-4.486,5.447-10.019,5.447c-5.537,0-10.022-2.438-10.022-5.447
					s4.485-5.453,10.022-5.453C173.5,135.243,177.986,137.687,177.986,140.696z"/>
				<path opacity="0.0385" fill="#FCDED1" d="M177.685,140.696c0,2.927-4.351,5.3-9.717,5.3c-5.37,0-9.72-2.373-9.72-5.3
					c0-2.928,4.35-5.306,9.72-5.306C173.334,135.391,177.685,137.769,177.685,140.696z"/>
				<path opacity="0.0769" fill="#FCDCD0" d="M177.382,140.696c0,2.846-4.215,5.153-9.414,5.153c-5.203,0-9.418-2.307-9.418-5.153
					c0-2.846,4.215-5.158,9.418-5.158C173.167,135.538,177.382,137.85,177.382,140.696z"/>
				<ellipse opacity="0.1154" fill="#FCDBCF" cx="167.966" cy="140.695" rx="9.114" ry="5.006"/>
				<path opacity="0.1538" fill="#FCD9CE" d="M176.777,140.696c0,2.683-3.943,4.858-8.81,4.858c-4.869,0-8.813-2.176-8.813-4.858
					c0-2.684,3.944-4.863,8.813-4.863C172.834,135.833,176.777,138.012,176.777,140.696z"/>
				<ellipse opacity="0.1923" fill="#FBD7CE" cx="167.967" cy="140.696" rx="8.51" ry="4.712"/>
				<ellipse opacity="0.2308" fill="#FBD5CD" cx="167.967" cy="140.696" rx="8.207" ry="4.564"/>
				<path opacity="0.2692" fill="#FBD4CC" d="M175.871,140.696c0,2.438-3.537,4.417-7.903,4.417c-4.369,0-7.907-1.979-7.907-4.417
					c0-2.44,3.538-4.421,7.907-4.421C172.334,136.275,175.871,138.256,175.871,140.696z"/>
				<ellipse opacity="0.3077" fill="#FBD2CB" cx="167.966" cy="140.696" rx="7.603" ry="4.271"/>
				<ellipse opacity="0.3462" fill="#FBD0CA" cx="167.967" cy="140.696" rx="7.301" ry="4.123"/>
				<path opacity="0.3846" fill="#FBCEC9" d="M174.965,140.696c0,2.194-3.13,3.976-6.997,3.976c-3.868,0-6.999-1.782-6.999-3.976
					c0-2.196,3.131-3.979,6.999-3.979C171.835,136.718,174.965,138.5,174.965,140.696z"/>
				<ellipse opacity="0.4231" fill="#FBCDC8" cx="167.966" cy="140.695" rx="6.696" ry="3.829"/>
				<path opacity="0.4615" fill="#FBCBC7" d="M174.361,140.696c0,2.031-2.859,3.682-6.394,3.682s-6.395-1.651-6.395-3.682
					c0-2.034,2.86-3.683,6.395-3.683S174.361,138.662,174.361,140.696z"/>
				<path opacity="0.5" fill="#FBC9C7" d="M174.059,140.696c0,1.949-2.724,3.534-6.091,3.534c-3.366,0-6.093-1.585-6.093-3.534
					c0-1.953,2.727-3.535,6.093-3.535C171.335,137.161,174.059,138.743,174.059,140.696z"/>
				<path opacity="0.5385" fill="#FAC7C6" d="M173.757,140.696c0,1.868-2.589,3.388-5.789,3.388s-5.79-1.52-5.79-3.388
					c0-1.872,2.59-3.388,5.79-3.388S173.757,138.824,173.757,140.696z"/>
				<path opacity="0.5769" fill="#FAC5C5" d="M173.454,140.696c0,1.787-2.452,3.241-5.486,3.241c-3.032,0-5.487-1.454-5.487-3.241
					c0-1.79,2.455-3.24,5.487-3.24C171.002,137.456,173.454,138.906,173.454,140.696z"/>
				<path opacity="0.6154" fill="#FAC4C4" d="M173.152,140.696c0,1.705-2.316,3.093-5.185,3.093c-2.866,0-5.185-1.388-5.185-3.093
					c0-1.709,2.318-3.093,5.185-3.093C170.836,137.603,173.152,138.987,173.152,140.696z"/>
				<path opacity="0.6538" fill="#FAC2C3" d="M172.85,140.696c0,1.624-2.181,2.946-4.882,2.946c-2.699,0-4.883-1.322-4.883-2.946
					c0-1.628,2.184-2.945,4.883-2.945C170.669,137.751,172.85,139.068,172.85,140.696z"/>
				<path opacity="0.6923" fill="#FAC0C2" d="M172.548,140.696c0,1.542-2.046,2.799-4.58,2.799c-2.532,0-4.581-1.257-4.581-2.799
					c0-1.546,2.049-2.797,4.581-2.797C170.502,137.898,172.548,139.149,172.548,140.696z"/>
				<path opacity="0.7308" fill="#FABEC1" d="M172.246,140.696c0,1.461-1.91,2.651-4.278,2.651c-2.365,0-4.278-1.19-4.278-2.651
					c0-1.466,1.913-2.65,4.278-2.65C170.336,138.046,172.246,139.23,172.246,140.696z"/>
				<path opacity="0.7692" fill="#FABDC0" d="M171.943,140.696c0,1.379-1.774,2.504-3.976,2.504c-2.198,0-3.976-1.125-3.976-2.504
					c0-1.384,1.777-2.502,3.976-2.502C170.169,138.193,171.943,139.312,171.943,140.696z"/>
				<path opacity="0.8077" fill="#FABBBF" d="M171.642,140.696c0,1.298-1.639,2.357-3.674,2.357c-2.031,0-3.674-1.059-3.674-2.357
					c0-1.303,1.643-2.355,3.674-2.355C170.003,138.341,171.642,139.393,171.642,140.696z"/>
				<path opacity="0.8462" fill="#F9B9BF" d="M171.339,140.696c0,1.216-1.503,2.21-3.371,2.21c-1.864,0-3.371-0.995-3.371-2.21
					c0-1.222,1.507-2.208,3.371-2.208C169.836,138.488,171.339,139.475,171.339,140.696z"/>
				<path opacity="0.8846" fill="#F9B7BE" d="M171.037,140.696c0,1.135-1.368,2.063-3.069,2.063c-1.697,0-3.069-0.928-3.069-2.063
					c0-1.14,1.372-2.06,3.069-2.06C169.669,138.636,171.037,139.556,171.037,140.696z"/>
				<path opacity="0.9231" fill="#F9B6BD" d="M170.735,140.696c0,1.054-1.232,1.917-2.768,1.917c-1.53,0-2.767-0.863-2.767-1.917
					c0-1.059,1.236-1.912,2.767-1.912C169.503,138.784,170.735,139.637,170.735,140.696z"/>
				<path opacity="0.9615" fill="#F9B4BC" d="M170.433,140.696c0,0.972-1.096,1.769-2.465,1.769c-1.363,0-2.464-0.797-2.464-1.769
					c0-0.978,1.101-1.765,2.464-1.765C169.337,138.931,170.433,139.718,170.433,140.696z"/>
				<path fill="#F9B2BB" d="M170.131,140.696c0,0.891-0.961,1.622-2.163,1.622c-1.196,0-2.162-0.731-2.162-1.622
					c0-0.896,0.966-1.617,2.162-1.617C169.17,139.079,170.131,139.799,170.131,140.696z"/>
			</g>
		</g>
	</g>
</g>
</svg>
