<?xml version="1.0" encoding="utf-8"?>
<!-- Generator: Adobe Illustrator 16.0.0, SVG Export Plug-In . SVG Version: 6.00 Build 0)  -->
<!DOCTYPE svg PUBLIC "-//W3C//DTD SVG 1.1//EN" "http://www.w3.org/Graphics/SVG/1.1/DTD/svg11.dtd">
<svg version="1.1" xmlns="http://www.w3.org/2000/svg" xmlns:xlink="http://www.w3.org/1999/xlink" x="0px" y="0px" width="100px"
	 height="100px" viewBox="0 0 100 100" enable-background="new 0 0 100 100" xml:space="preserve">
<g id="bg">
</g>
<g id="line">
</g>
<g id="blee">
</g>
<g id="note">
</g>
<g id="b">
	<g>
		<g>
			<line fill="#FFFFFF" x1="43.017" y1="20.037" x2="43.017" y2="46.738"/>
			<path fill="#FFFFFF" d="M43.017,20.037c0,0,0.106,1.669,0.187,4.172c0.027,1.251,0.089,2.711,0.102,4.276
				c0.014,1.564,0.029,3.233,0.044,4.902c-0.015,1.668-0.03,3.337-0.043,4.902c-0.011,1.565-0.074,3.025-0.102,4.276
				c-0.08,2.503-0.187,4.172-0.187,4.172s-0.107-1.669-0.187-4.172c-0.027-1.251-0.09-2.711-0.102-4.276
				c-0.014-1.564-0.029-3.233-0.043-4.902c0.015-1.669,0.03-3.338,0.044-4.902c0.013-1.565,0.074-3.025,0.102-4.276
				C42.911,21.706,43.017,20.037,43.017,20.037z"/>
		</g>
		<g>
			<path fill="#FFFFFF" d="M63.676,19.314c-0.258,0.269-0.616,0.432-0.964,0.568c-0.354,0.138-0.728,0.217-1.105,0.272
				c-0.757,0.091-1.539,0.036-2.291-0.163c-0.378-0.096-0.743-0.238-1.1-0.399c-0.355-0.168-0.693-0.366-1.017-0.591
				c-0.312-0.214-0.645-0.503-0.898-0.712l-0.851-0.711l-0.856-0.612l-0.907-0.545c-0.625-0.315-1.25-0.624-1.909-0.8
				c-0.324-0.109-0.658-0.161-0.986-0.226c-0.332-0.036-0.662-0.071-0.989-0.062c-0.328,0.001-0.648,0.044-0.962,0.094
				c-0.292,0.057-0.648,0.166-0.821,0.252l0.437-0.726l0.139,5.276l0.086,5.276l0.032,5.276c0.016,1.759,0.002,3.518-0.013,5.277
				c-0.019,3.518-0.083,7.037-0.198,10.557c-0.024,0.88-0.052,1.76-0.098,2.64c-0.056,0.883-0.046,1.747-0.045,2.632
				c0.003,0.886-0.052,1.795-0.255,2.665c-0.183,0.875-0.509,1.703-0.838,2.519c0.233-0.851,0.446-1.704,0.533-2.569
				c0.122-0.861,0.096-1.725,0.017-2.593c-0.167-1.758-0.279-3.525-0.364-5.279c-0.188-3.516-0.326-7.033-0.418-10.551
				c-0.052-1.759-0.103-3.518-0.123-5.277l-0.078-5.278l-0.024-5.278l0.029-5.279l0.003-0.532l0.434-0.194
				c0.501-0.223,0.87-0.292,1.304-0.371c0.418-0.058,0.838-0.077,1.25-0.056c0.414,0.015,0.818,0.081,1.219,0.152
				c0.393,0.099,0.788,0.189,1.159,0.338c0.76,0.26,1.453,0.642,2.118,1.049l0.944,0.681l0.891,0.76l0.791,0.784
				c0.297,0.286,0.498,0.511,0.77,0.753c0.261,0.231,0.539,0.441,0.837,0.627c0.299,0.18,0.609,0.346,0.939,0.471
				c0.655,0.258,1.367,0.396,2.087,0.394c0.358-0.017,0.724-0.027,1.079-0.107C63.018,19.636,63.376,19.541,63.676,19.314z"/>
		</g>
		<g>
			<path fill="#FFFFFF" d="M47.613,50.92c-0.514-1.294-2.836-3.512-6.833-0.538c-3.998,2.975-4.736,8.493-3.563,10.414
				c1.108,1.813,3.191,2.496,5.888,0.858C47.889,58.748,48.754,53.789,47.613,50.92z"/>
			<path fill="#FFFFFF" d="M47.613,50.92c0,0-0.051-0.146-0.204-0.388c-0.151-0.239-0.4-0.59-0.831-0.906
				c-0.424-0.314-1.037-0.593-1.769-0.613c-0.725-0.029-1.545,0.165-2.316,0.61c-0.788,0.443-1.511,1.028-2.218,1.807
				c-0.643,0.717-1.215,1.64-1.628,2.613c-0.424,0.979-0.7,2.052-0.828,3.128c-0.07,0.54-0.06,1.078-0.042,1.598
				c0.045,0.509,0.14,1.014,0.308,1.34l0.054,0.123c-0.106-0.157-0.024-0.037-0.046-0.069l0.008,0.012l0.017,0.023l0.034,0.046
				l0.067,0.093l0.269,0.371c0.176,0.184,0.268,0.249,0.42,0.392c0.184,0.089,0.333,0.26,0.541,0.296
				c0.097,0.032,0.192,0.074,0.289,0.117c0.103,0.024,0.213,0.027,0.319,0.047c0.845,0.129,1.934-0.238,2.776-0.661
				c0.492-0.298,0.975-0.591,1.448-0.877c0.403-0.314,0.754-0.647,1.137-0.965c0.687-0.7,1.314-1.469,1.686-2.279
				c0.105-0.199,0.209-0.394,0.31-0.584c0.064-0.205,0.127-0.405,0.189-0.601c0.108-0.395,0.271-0.763,0.288-1.132
				c0.046-0.367,0.09-0.711,0.13-1.028c-0.009-0.319-0.037-0.613-0.052-0.879c0.002-0.54-0.18-0.931-0.238-1.21
				C47.654,51.067,47.613,50.92,47.613,50.92z M47.613,50.92c0,0,0.043,0.146,0.123,0.421c0.066,0.277,0.243,0.67,0.268,1.208
				c0.029,0.266,0.071,0.562,0.097,0.884c-0.011,0.324-0.023,0.675-0.037,1.05c0.018,0.382-0.108,0.767-0.18,1.185
				c-0.041,0.21-0.082,0.425-0.125,0.645c-0.073,0.211-0.149,0.428-0.226,0.648c-0.167,0.438-0.29,0.928-0.574,1.354
				c-0.266,0.436-0.458,0.946-0.821,1.375c-0.353,0.43-0.72,0.907-1.12,1.342c-0.417,0.363-0.843,0.734-1.276,1.112l-0.164,0.14
				l-0.257,0.163l-0.412,0.251c-0.271,0.176-0.56,0.334-0.887,0.449c-0.318,0.127-0.636,0.259-1.004,0.304
				c-0.357,0.069-0.718,0.134-1.109,0.094c-0.771,0.026-1.562-0.289-2.23-0.713c-0.324-0.225-0.688-0.579-0.919-0.842l-0.274-0.366
				l-0.192-0.264l-0.148-0.289c-0.67-1.548-0.536-2.923-0.28-4.221c0.262-1.295,0.771-2.489,1.431-3.526
				c0.667-1.045,1.456-1.907,2.358-2.612c0.84-0.636,1.775-1.18,2.647-1.51c0.888-0.327,1.767-0.476,2.524-0.362
				c0.757,0.11,1.36,0.419,1.775,0.758c0.418,0.339,0.669,0.686,0.814,0.931C47.565,50.773,47.613,50.92,47.613,50.92z"/>
		</g>
		<g>
			<path fill="#FFFFFF" d="M49.752,34.476c0,0,0.327-0.081,0.958-0.136c0.628-0.046,1.576-0.099,2.762,0.143
				c1.181,0.221,2.625,0.735,4.003,1.81c0.164,0.142,0.33,0.287,0.5,0.434c0.092,0.087,0.153,0.12,0.273,0.254l0.221,0.235
				c0.345,0.414,0.625,0.908,0.777,1.45c0.328,1.115,0.069,2.285-0.304,3.306c-0.777,2.061-2.161,3.877-3.279,5.744
				c-0.268,0.46-0.509,0.935-0.629,1.329c-0.052,0.169-0.059,0.409-0.044,0.249c0.013,0.023,0.088,0.198,0.219,0.378
				c0.554,0.763,1.449,1.656,2.314,2.526c1.76,1.768,3.674,3.638,5.328,5.83c1.66,2.18,3.139,4.649,4.059,7.396
				c0.901,2.747,1.179,5.734,0.74,8.565c-0.428,3.002-2.157,5.688-4.354,7.397c-2.187,1.757-4.695,2.651-7.035,3.188
				c-2.354,0.539-4.614,0.673-6.674,0.624c-4.127-0.089-7.471-0.951-9.689-1.782c-1.116-0.406-1.944-0.844-2.497-1.146
				c-0.552-0.31-0.83-0.496-0.83-0.496s1.232,0.569,3.501,1.051c2.26,0.482,5.57,0.866,9.473,0.596
				c1.946-0.146,4.037-0.472,6.133-1.084c2.085-0.627,4.187-1.594,5.877-3.048c1.711-1.435,2.806-3.494,3.138-5.719
				c0.337-2.379,0.067-4.856-0.717-7.181c-0.749-2.345-2.012-4.552-3.51-6.572c-1.504-2.024-3.184-3.904-4.9-5.743
				c-0.85-0.952-1.722-1.804-2.499-3.06c-0.188-0.329-0.393-0.697-0.502-1.26c-0.104-0.753,0.081-1.104,0.191-1.493
				c0.28-0.717,0.628-1.256,0.969-1.769c1.367-1.987,2.801-3.55,3.601-5.203c0.394-0.811,0.602-1.611,0.49-2.296
				c-0.055-0.351-0.186-0.663-0.354-0.944l-0.191-0.26c-0.014-0.032-0.118-0.134-0.173-0.198c-0.132-0.146-0.262-0.289-0.391-0.431
				c-1.096-1.061-2.313-1.739-3.391-2.098c-1.076-0.37-1.985-0.511-2.605-0.561C50.088,34.452,49.752,34.476,49.752,34.476z"/>
		</g>
	</g>
	<circle fill="none" stroke="#FFFFFF" stroke-width="2.0833" stroke-miterlimit="10" cx="50" cy="50" r="47.223"/>
</g>
</svg>
