<?xml version="1.0" encoding="utf-8"?>
<!-- Generator: Adobe Illustrator 16.0.0, SVG Export Plug-In . SVG Version: 6.00 Build 0)  -->
<!DOCTYPE svg PUBLIC "-//W3C//DTD SVG 1.1//EN" "http://www.w3.org/Graphics/SVG/1.1/DTD/svg11.dtd">
<svg version="1.1" id="Layer_1" xmlns="http://www.w3.org/2000/svg" xmlns:xlink="http://www.w3.org/1999/xlink" x="0px" y="0px"
	 width="300px" height="300px" viewBox="0 0 300 300" enable-background="new 0 0 300 300" xml:space="preserve">
<circle fill-rule="evenodd" clip-rule="evenodd" fill="#E0F7FA" cx="150" cy="150" r="130"/>
<circle fill-rule="evenodd" clip-rule="evenodd" fill="#E0F7FA" cx="150" cy="150" r="130"/>
<circle fill-rule="evenodd" clip-rule="evenodd" fill="none" stroke="#80DEEA" stroke-width="5" stroke-miterlimit="10" cx="150" cy="150" r="140"/>
<g>
	<path opacity="0.8" fill-rule="evenodd" clip-rule="evenodd" fill="#B2DFDB" d="M150,177.141c57.106,0,74.725,7.229,74.725,16.086
		c0,8.891-14.393,16.115-74.725,16.115c-60.304,0-74.725-7.225-74.725-16.115C75.275,184.369,92.916,177.141,150,177.141
		L150,177.141z"/>
	<g>
		<g>
			<path fill-rule="evenodd" clip-rule="evenodd" fill="#34859E" d="M86.472,120.355c-1.976,0.018-3.587,1.717-3.587,3.822v2.867
				c0,2.101,1.611,3.822,3.587,3.822h5.19l9.837,4.851l0.946-2.165l-8.111-4.004C94.51,123.494,90.108,120.319,86.472,120.355z"/>
			<path fill-rule="evenodd" clip-rule="evenodd" fill="#34859E" d="M213.529,120.355c1.975,0.018,3.597,1.717,3.597,3.822v2.867
				c0,2.101-1.622,3.822-3.597,3.822h-5.19l-9.837,4.851l-0.942-2.165l8.111-4.004C205.495,123.494,209.896,120.319,213.529,120.355
				z"/>
		</g>
		<g>
			<path fill-rule="evenodd" clip-rule="evenodd" fill="#49A4C1" d="M86.472,120.355c-1.976,0.018-3.587,1.717-3.587,3.822v1.051
				c0,2.101,1.611,3.823,3.587,3.823h5.19l9.837,4.854l0.29-0.675l-7.455-3.683C94.51,123.494,90.108,120.319,86.472,120.355z"/>
			<path fill-rule="evenodd" clip-rule="evenodd" fill="#49A4C1" d="M213.529,120.355c1.975,0.018,3.597,1.717,3.597,3.822v1.051
				c0,2.101-1.622,3.823-3.597,3.823h-5.19l-9.837,4.854l-0.289-0.675l7.458-3.683C205.495,123.494,209.896,120.319,213.529,120.355
				z"/>
		</g>
		<path fill-rule="evenodd" clip-rule="evenodd" fill="#4D4D4D" d="M197.441,178.734h15.983c1.916,0,3.475,1.758,3.475,3.909v12.518
			c0,2.151-1.559,3.909-3.475,3.909h-15.983c-1.905,0-3.469-1.758-3.469-3.909v-12.518
			C193.973,180.492,195.536,178.734,197.441,178.734z"/>
		<path fill-rule="evenodd" clip-rule="evenodd" fill="#808080" d="M197.441,178.734h15.983c1.916,0,3.475,1.495,3.475,3.329v10.657
			c0,1.829-1.559,3.328-3.475,3.328h-15.983c-1.905,0-3.469-1.499-3.469-3.328v-10.657
			C193.973,180.229,195.536,178.734,197.441,178.734z"/>
		<path fill-rule="evenodd" clip-rule="evenodd" fill="#4D4D4D" d="M86.575,178.734h15.979c1.911,0,3.473,1.758,3.473,3.909v12.518
			c0,2.151-1.562,3.909-3.473,3.909H86.575c-1.906,0-3.473-1.758-3.473-3.909v-12.518C83.103,180.492,84.669,178.734,86.575,178.734
			z"/>
		<path fill-rule="evenodd" clip-rule="evenodd" fill="#808080" d="M86.575,178.734h15.979c1.911,0,3.473,1.495,3.473,3.329v10.657
			c0,1.829-1.562,3.328-3.473,3.328H86.575c-1.906,0-3.473-1.499-3.473-3.328v-10.657C83.103,180.229,84.669,178.734,86.575,178.734
			z"/>
		<path fill-rule="evenodd" clip-rule="evenodd" fill="#BFF0FF" d="M105.476,118.652c1.563-15.235,11.53-23.95,23.496-23.95h42.057
			c11.967,0,21.935,8.715,23.497,23.95l1.676,14.411h-92.396L105.476,118.652z"/>
		<path fill-rule="evenodd" clip-rule="evenodd" fill="#F2A010" d="M105.476,118.652l-1.671,14.411h-5.865l1.67-14.411
			c1.59-16.636,12.954-27.994,26.623-27.994h47.537c13.664,0,25.026,11.358,26.621,27.994l1.667,14.411h-5.856l-1.676-14.411
			c-1.563-15.235-11.53-23.95-23.497-23.95h-42.057C117.006,94.702,107.038,103.417,105.476,118.652z"/>
		<path fill-rule="evenodd" clip-rule="evenodd" fill="#A7E1F2" d="M144.751,99.336h10.498c0.906,0,1.581,0.802,1.641,1.775
			l0.117,1.856c0.063,1.097-0.344,1.776-1.667,1.776h-10.674c-1.409,0-1.735-0.68-1.667-1.776l0.112-1.856
			C143.175,100.138,143.854,99.336,144.751,99.336z"/>
		<rect x="149.476" y="94.702" fill-rule="evenodd" clip-rule="evenodd" fill="#A7E1F2" width="1.055" height="4.634"/>
		<path fill-rule="evenodd" clip-rule="evenodd" fill="#F2A010" d="M202.079,133.063c10.734,0,17.769,9.652,19.521,21.169
			l2.023,13.315c1.957,12.902-4.053,21.172-19.896,21.172c-53.99,0-53.46,0-107.46,0c-15.834,0-21.852-8.27-19.887-21.172
			l2.024-13.315c1.748-11.517,8.782-21.169,19.516-21.169C150.812,133.063,149.189,133.063,202.079,133.063z"/>
		<path fill-rule="evenodd" clip-rule="evenodd" fill="#FAB62D" d="M196.708,133.063c9.633,0,15.938,5.716,17.509,12.541
			l1.813,7.885c1.762,7.645-3.632,12.537-17.835,12.537c-48.434,0-47.954,0-96.383,0c-14.208,0-19.597-4.893-17.84-12.537
			l1.816-7.885c1.571-6.825,7.876-12.541,17.504-12.541C150.729,133.063,149.271,133.063,196.708,133.063z"/>
		<polygon fill-rule="evenodd" clip-rule="evenodd" fill="#FFCB63" points="102.21,135.938 130.757,146.058 132.667,154.322 		"/>
		<g>
			<path fill-rule="evenodd" clip-rule="evenodd" fill="#A7E1F2" d="M142.505,105.454c1.518,0,2.082,1.889,1.983,2.863
				c-0.761,7.241-1.332,15.634-1.648,24.746h-30.901c0.625-9.75,2.831-18.619,6.077-25.716c0.481-1.046,1.413-1.901,2.492-1.894
				H142.505z"/>
			<path fill-rule="evenodd" clip-rule="evenodd" fill="#A7E1F2" d="M157.496,105.454c-1.517,0-2.088,1.889-1.983,2.863
				c0.76,7.241,1.336,15.634,1.652,24.746h30.894c-0.616-9.75-2.826-18.619-6.069-25.716c-0.484-1.046-1.413-1.901-2.492-1.894
				H157.496z"/>
		</g>
		<polygon fill-rule="evenodd" clip-rule="evenodd" fill="#FFCB63" points="197.615,135.938 169.063,146.058 167.156,154.322 		"/>
		<path fill-rule="evenodd" clip-rule="evenodd" fill="#FFE0A3" d="M157.813,160.895c2.948,0,4.738-0.852,7.252-3.882l4.185-5.031
			c3.542-4.253,1.173-7.42-7.351-7.42h-23.823c-9.152,0-10.322,3.851-7.654,7.062l4.484,5.39c2.051,2.464,4.741,3.882,7.469,3.882
			H157.813z"/>
		<path fill-rule="evenodd" clip-rule="evenodd" fill="#4D4D4D" d="M152.438,159.159c0.349,0,0.684,0,1-0.009v-12.858h-2.273v12.867
			H152.438L152.438,159.159z M148.846,146.292h-2.27v12.858c0.313,0.009,0.648,0.009,0.987,0.009h1.282V146.292L148.846,146.292z
			 M144.248,146.292h-2.27v12.654c0.608,0.082,1.346,0.132,2.27,0.169V146.292L144.248,146.292z M139.66,146.297
			c-0.833,0.009-1.59,0.041-2.269,0.086v9.263l0.389,0.461c0.807,0.942,1.251,1.604,1.88,2.065V146.297L139.66,146.297z
			 M135.068,146.669c-3.47,0.684-3.401,2.292-1.301,4.746l1.301,1.521V146.669L135.068,146.669z M155.762,159.115
			c0.923-0.037,1.661-0.092,2.269-0.169v-12.654h-2.269V159.115L155.762,159.115z M160.349,158.163
			c0.625-0.462,1.069-1.118,1.871-2.057l0.398-0.471v-9.253c-0.68-0.045-1.436-0.077-2.27-0.086V158.163L160.349,158.163z
			 M164.941,152.923l1.286-1.508c2.103-2.454,2.175-4.063-1.286-4.746V152.923z"/>
		<path fill-rule="evenodd" clip-rule="evenodd" fill="#FFE0A3" d="M95.488,154.676l-4.841-8.397
			c-3.605-6.253,2.423-9.813,6.616-6.697l7.845,5.833C114.805,152.615,101.662,165.383,95.488,154.676z"/>
		<path fill-rule="evenodd" clip-rule="evenodd" fill="#FFFAF0" d="M102.917,146.292c2.817,0.866,4.402,3.845,3.541,6.658
			c-0.856,2.821-3.836,4.407-6.658,3.547c-2.815-0.861-4.402-3.842-3.541-6.657C97.12,147.022,100.099,145.437,102.917,146.292z"/>
		
			<ellipse transform="matrix(0.2919 -0.9564 0.9564 0.2919 -70.2703 191.4418)" fill-rule="evenodd" clip-rule="evenodd" fill="#FF6E42" cx="94.16" cy="143.18" rx="2.862" ry="2.867"/>
		<path fill-rule="evenodd" clip-rule="evenodd" fill="#FFE0A3" d="M204.517,154.676l4.837-8.397
			c3.608-6.253-2.419-9.813-6.612-6.697l-7.854,5.833C185.195,152.615,198.338,165.383,204.517,154.676z"/>
		<path fill-rule="evenodd" clip-rule="evenodd" fill="#FFFAF0" d="M197.089,146.292c-2.816,0.866-4.406,3.845-3.547,6.658
			c0.866,2.821,3.846,4.407,6.653,3.547c2.822-0.861,4.412-3.842,3.551-6.657C202.886,147.022,199.906,145.437,197.089,146.292z"/>
		<path fill-rule="evenodd" clip-rule="evenodd" fill="#FF6E42" d="M205.006,140.442c-1.509,0.461-2.365,2.061-1.903,3.573
			c0.463,1.512,2.066,2.363,3.579,1.901s2.364-2.061,1.901-3.573C208.122,140.831,206.519,139.979,205.006,140.442z"/>
		<rect x="146.422" y="140.749" fill-rule="evenodd" clip-rule="evenodd" fill="#FAB62D" width="7.162" height="23.18"/>
		<path fill-rule="evenodd" clip-rule="evenodd" fill="#34859E" d="M152.768,188.72h-5.535H96.268
			c-15.834,0-21.852-8.27-19.887-21.172c1.173-7.718,15.57-8.307,21.554-3.899l10.933,8.057c3.882,2.854,8.442,3.196,12.065,3.196
			h5.733v-1.059c0-1.473,1.21-2.677,2.682-2.677h41.31c1.473,0,2.672,1.204,2.672,2.677v1.059h5.743
			c3.623,0,8.179-0.343,12.061-3.196l10.933-8.057c5.983-4.407,20.387-3.818,21.559,3.899c1.957,12.902-4.053,21.172-19.896,21.172
			H152.768z"/>
		<path fill-rule="evenodd" clip-rule="evenodd" fill="#49A4C1" d="M76.027,171.415c0.032-1.236,0.149-2.526,0.354-3.867
			c0.693-4.583,6.055-6.648,11.545-6.653c3.763,0,7.581,0.965,10.009,2.754l10.933,8.057c3.882,2.854,8.442,3.196,12.065,3.196
			h5.733v-1.059c0-1.473,1.21-2.677,2.682-2.677h41.31c1.473,0,2.672,1.204,2.672,2.677v1.059h5.743
			c3.623,0,8.179-0.343,12.061-3.196l10.933-8.057c2.434-1.789,6.251-2.754,10.005-2.754c5.499,0.005,10.86,2.07,11.554,6.653
			c0.204,1.341,0.321,2.631,0.349,3.867c-0.263,8.854-6.621,14.316-20.245,14.316h-50.96h-5.535H96.268
			C82.653,185.731,76.295,180.27,76.027,171.415z"/>
		<path fill-rule="evenodd" clip-rule="evenodd" fill="#FFFFFF" d="M131.566,173.803h36.867c1.313,0,2.391,1.072,2.391,2.391v7.083
			c0,1.313-1.077,2.388-2.391,2.388h-36.867c-1.313,0-2.386-1.074-2.386-2.388v-7.083
			C129.181,174.875,130.253,173.803,131.566,173.803z"/>
		<path fill-rule="evenodd" clip-rule="evenodd" fill="#FAB62D" d="M98.144,131.32l1.466-12.668
			c1.59-16.636,12.954-27.994,26.623-27.994h47.537c13.664,0,25.026,11.358,26.621,27.994l1.468,12.668h-5.657l-1.676-14.406
			c-1.563-15.241-11.53-23.954-23.497-23.954h-42.057c-11.966,0-21.934,8.713-23.496,23.954l-1.671,14.406H98.144z"/>
		<path fill-rule="evenodd" clip-rule="evenodd" fill="#74BFD6" d="M87.083,177.711h8.895c1.283,0,2.238-1.132,2.323-2.522
			l0.164-2.641c0.1-1.55-0.48-2.522-2.369-2.522h-9.135c-2.002,0-2.468,0.973-2.369,2.522l0.162,2.641
			C84.842,176.579,85.802,177.711,87.083,177.711z"/>
		<path fill-rule="evenodd" clip-rule="evenodd" fill="#74BFD6" d="M204.027,177.711h8.895c1.277,0,2.242-1.132,2.329-2.522
			l0.162-2.641c0.1-1.55-0.48-2.522-2.374-2.522h-9.13c-2.001,0-2.468,0.973-2.373,2.522l0.163,2.641
			C201.79,176.579,202.75,177.711,204.027,177.711z"/>
		<path opacity="0.5" fill-rule="evenodd" clip-rule="evenodd" fill="#FFFFFF" d="M174.533,94.961
			c1.559,0.23,3.067,0.62,4.517,1.155l-25.521,16.436v-4.066L174.533,94.961L174.533,94.961z M153.528,133.063h0.92l37.591-24.217
			c-0.466-1.073-0.983-2.087-1.563-3.047l-36.948,23.799V133.063L153.528,133.063z M153.528,125.433l34.938-22.501
			c-1.676-2.064-3.624-3.76-5.794-5.067l-29.144,18.769V125.433z M153.528,112.552l-31.871,20.512h-6.309l38.18-24.578V112.552
			L153.528,112.552z M153.528,116.633l-25.525,16.431h13.669l11.856-7.631V116.633L153.528,116.633z M153.528,129.599l-5.381,3.465
			h5.381V129.599z"/>
		<path fill-rule="evenodd" clip-rule="evenodd" fill="#E6E6E6" d="M198.646,156.877c3.018,0,5.476-2.459,5.476-5.48
			c0-3.021-2.458-5.479-5.476-5.479c-3.025,0-5.488,2.459-5.488,5.479C193.158,154.418,195.621,156.877,198.646,156.877z"/>
		<path fill-rule="evenodd" clip-rule="evenodd" fill="#FFFFFF" d="M198.646,145.917c2.618,0,4.811,1.84,5.35,4.298
			c-0.539,2.459-2.731,4.294-5.35,4.294c-2.622,0-4.814-1.835-5.354-4.294C193.832,147.757,196.024,145.917,198.646,145.917z"/>
		<path fill-rule="evenodd" clip-rule="evenodd" fill="#E6E6E6" d="M101.358,156.877c3.016,0,5.48-2.459,5.48-5.48
			c0-3.021-2.465-5.479-5.48-5.479c-3.021,0-5.479,2.459-5.479,5.479C95.879,154.418,98.338,156.877,101.358,156.877z"/>
		<path fill-rule="evenodd" clip-rule="evenodd" fill="#FFFFFF" d="M101.358,145.917c2.622,0,4.814,1.84,5.354,4.298
			c-0.539,2.459-2.731,4.294-5.354,4.294s-4.81-1.835-5.349-4.294C96.549,147.757,98.736,145.917,101.358,145.917z"/>
		<path fill-rule="evenodd" clip-rule="evenodd" fill="#E85D33" d="M94.161,146.026c1.563,0,2.845-1.278,2.845-2.85
			c0-1.567-1.281-2.844-2.845-2.844c-1.571,0-2.848,1.276-2.848,2.844C91.313,144.748,92.59,146.026,94.161,146.026z"/>
		<path fill-rule="evenodd" clip-rule="evenodd" fill="#FF6E42" d="M94.161,140.333h-0.075l0,0
			c-1.391,0.036-2.533,1.068-2.741,2.409c0.208,1.005,1.391,1.771,2.816,1.771c1.423,0,2.601-0.766,2.813-1.771
			c-0.209-1.341-1.35-2.373-2.74-2.409l0,0H94.161z"/>
		<path fill-rule="evenodd" clip-rule="evenodd" fill="#E85D33" d="M205.844,146.026c1.571,0,2.849-1.278,2.849-2.85
			c0-1.567-1.277-2.844-2.849-2.844c-1.563,0-2.85,1.276-2.85,2.844C202.994,144.748,204.28,146.026,205.844,146.026z"/>
		<path fill-rule="evenodd" clip-rule="evenodd" fill="#FF6E42" d="M205.844,140.333h-0.077l0,0
			c-1.386,0.036-2.528,1.068-2.735,2.409c0.207,1.005,1.395,1.771,2.813,1.771c1.426,0,2.599-0.766,2.813-1.771
			c-0.21-1.341-1.351-2.373-2.741-2.409l0,0H205.844z"/>
		<g>
			<g>
				<path fill-rule="evenodd" clip-rule="evenodd" fill="#87BECF" d="M122.749,129.844L122.749,129.844
					c-0.045,0.367,0.213,0.716,0.585,0.766l22.286,3.039c0.372,0.049,0.721-0.209,0.77-0.585l0,0
					c0.045-0.371-0.208-0.715-0.583-0.765l-22.287-3.039C123.147,129.209,122.799,129.467,122.749,129.844z"/>
				<path fill-rule="evenodd" clip-rule="evenodd" fill="#87BECF" d="M134.217,128.272c-4.267-1.033-18.614,0.878-23.311,3.179
					l0.099,0.698l23.308-3.175L134.217,128.272z"/>
			</g>
			<g>
				<path fill-rule="evenodd" clip-rule="evenodd" fill="#87BECF" d="M165.45,129.844L165.45,129.844
					c-0.056,0.367,0.212,0.716,0.583,0.766l22.287,3.039c0.371,0.049,0.716-0.209,0.771-0.585l0,0
					c0.05-0.371-0.208-0.715-0.589-0.765l-22.283-3.039C165.847,129.209,165.504,129.467,165.45,129.844z"/>
				<path fill-rule="evenodd" clip-rule="evenodd" fill="#87BECF" d="M176.916,128.272c-4.266-1.033-18.623,0.878-23.315,3.179
					l0.096,0.698l23.315-3.175L176.916,128.272z"/>
			</g>
		</g>
	</g>
</g>
</svg>
