<?xml version="1.0" encoding="utf-8"?>
<!-- Generator: Adobe Illustrator 16.0.0, SVG Export Plug-In . SVG Version: 6.00 Build 0)  -->
<!DOCTYPE svg PUBLIC "-//W3C//DTD SVG 1.1//EN" "http://www.w3.org/Graphics/SVG/1.1/DTD/svg11.dtd">
<svg version="1.1" id="Layer_1" xmlns="http://www.w3.org/2000/svg" xmlns:xlink="http://www.w3.org/1999/xlink" x="0px" y="0px"
	 width="300px" height="300px" viewBox="0 0 300 300" enable-background="new 0 0 300 300" xml:space="preserve">
<g>
	<g>
		<circle fill="#E0F7FA" cx="150" cy="150" r="121.138"/>
		<path fill="#B2DFDB" d="M81.956,222.992l84.074,47.088c59.324-7.844,105.108-58.612,105.108-120.08
			c0-8.358-0.848-16.52-2.46-24.401l-62.85-48.59L81.956,222.992z"/>
		<g>
			<polygon fill-rule="evenodd" clip-rule="evenodd" fill="#90A4AE" points="106.781,121.021 122.94,103.716 193.219,178.979 
				177.063,196.283 			"/>
			<path fill-rule="evenodd" clip-rule="evenodd" fill="#A1A0A0" d="M105.802,119.971l4.189-4.487l5.667-1.626l1.519-6.069
				l4.783-5.121l13.615,14.581c-1.333,4.009-3.498,7.771-6.496,10.981c-2.766,2.963-5.973,5.165-9.393,6.61L105.802,119.971z"/>
			<polygon fill-rule="evenodd" clip-rule="evenodd" fill="#C7C7C6" points="113.086,121.021 177.063,189.53 186.914,178.979 
				122.94,110.469 			"/>
			<path fill-rule="evenodd" clip-rule="evenodd" fill="#B8B8B8" d="M112.106,119.971l11.791,12.625
				c1.844-1.204,3.586-2.658,5.182-4.367c1.808-1.937,3.314-4.077,4.518-6.349l-11.638-12.46L112.106,119.971z"/>
			<path fill-rule="evenodd" clip-rule="evenodd" fill="#90A4AE" d="M102.218,76.983c9.055-2.333,18.996,0.285,26.063,7.853
				c10.806,11.572,10.806,30.333,0,41.905c-10.805,11.571-28.325,11.571-39.131,0c-7.068-7.569-9.512-18.215-7.333-27.911
				l11.064,11.849l5.89,6.307l8.044-2.308l8.045-2.309l2.155-8.616l2.156-8.614l-5.889-6.307L102.218,76.983z"/>
			<path fill-rule="evenodd" clip-rule="evenodd" fill="#90A4AE" d="M218.184,201.17c2.179-9.697-0.266-20.343-7.334-27.91
				c-10.805-11.572-28.324-11.572-39.131,0c-10.805,11.571-10.805,30.332,0,41.903c7.069,7.569,17.01,10.187,26.064,7.853
				l-11.064-11.85l-5.89-6.307l2.155-8.613l2.156-8.615l8.045-2.309l8.045-2.309l5.889,6.307L218.184,201.17z"/>
			<path fill-rule="evenodd" clip-rule="evenodd" fill="#BDBDBD" d="M214.186,190.136c-0.779-5.031-2.999-9.766-6.487-13.502
				c-9.065-9.708-23.76-9.708-32.826,0c-9.065,9.71-9.065,25.445,0,35.154c3.489,3.736,7.909,6.112,12.606,6.946l-11.623-12.446
				l5.645-22.555l21.063-6.045L214.186,190.136z"/>
			<polygon fill-rule="evenodd" clip-rule="evenodd" fill="#A1A0A0" points="162.656,146.25 146.498,163.554 153.792,171.363 
				169.949,154.059 			"/>
			<polygon fill-rule="evenodd" clip-rule="evenodd" fill="#B8B8B8" points="149.65,160.178 156.943,167.986 166.797,157.435 
				159.503,149.626 			"/>
			<g>
				<path fill-rule="evenodd" clip-rule="evenodd" fill="#F15B69" d="M116.805,208.978l-35.758,14.864l13.88-38.292l99.688-106.755
					c3.281-3.515,8.65-3.515,11.933,0l9.944,10.649c3.282,3.514,3.282,9.265,0,12.779L116.805,208.978z"/>
				<path fill-rule="evenodd" clip-rule="evenodd" fill="#8D6E63" d="M174.766,115.669l27.141-29.066
					c3.282-3.513,6.863-5.431,7.957-4.259l3.314,3.55c1.094,1.171-0.696,5.005-3.979,8.52l-27.141,29.066L174.766,115.669z"/>
				<path fill-rule="evenodd" clip-rule="evenodd" fill="#6D4D42" d="M213.178,85.894l3.314,3.55c3.282,3.514,3.282,9.265,0,12.779
					l-27.14,29.065l-7.294-7.809l27.141-29.066C212.481,90.899,214.271,87.065,213.178,85.894z"/>
				<path fill-rule="evenodd" clip-rule="evenodd" fill="#A1887F" d="M167.473,107.859l27.143-29.065
					c3.281-3.515,8.65-3.515,11.933,0l3.315,3.549c-1.094-1.171-4.675,0.746-7.957,4.259l-27.141,29.066L167.473,107.859z"/>
				<path fill-rule="evenodd" clip-rule="evenodd" fill="#FFFFFF" d="M116.805,208.978l-35.758,14.864l13.88-38.292l95.103-101.846
					c9.014,6.847,16.198,14.667,21.879,23.429L116.805,208.978z"/>
				<g>
					<path fill-rule="evenodd" clip-rule="evenodd" fill="#EAEAEA" d="M190.029,83.704l-14.266,15.279l7.292,7.81l15.112-16.184
						C195.637,88.208,192.928,85.905,190.029,83.704z"/>
					<path fill-rule="evenodd" clip-rule="evenodd" fill="#D1D1D0" d="M205.479,98.399l-15.131,16.202l-7.292-7.81l15.112-16.184
						C200.791,93.098,203.224,95.696,205.479,98.399z"/>
					<path fill-rule="evenodd" clip-rule="evenodd" fill="#76767B" d="M205.479,98.399l-15.131,16.202l7.295,7.81l14.266-15.279
						C209.948,104.11,207.809,101.198,205.479,98.399z"/>
				</g>
				<path fill-rule="evenodd" clip-rule="evenodd" fill="#FED800" d="M116.805,208.978l-35.758,14.864l13.88-38.292l88.124-94.374
					c9.146,6.795,16.327,14.616,21.879,23.43L116.805,208.978z"/>
				<g>
					<path fill-rule="evenodd" clip-rule="evenodd" fill="#90A4AE" d="M183.051,91.176L94.927,185.55l-3.496,9.64l4.539,4.861
						l95.275-102.03C188.709,95.636,185.98,93.354,183.051,91.176z"/>
					<path fill-rule="evenodd" clip-rule="evenodd" fill="#78909C" d="M198.561,105.808L103.263,207.86l-7.293-7.81l95.275-102.03
						C193.887,100.503,196.32,103.1,198.561,105.808z"/>
					<path fill-rule="evenodd" clip-rule="evenodd" fill="#546E7A" d="M198.561,105.808L103.263,207.86l4.539,4.86l9.003-3.743
						l88.125-94.372C203.006,111.553,200.887,108.621,198.561,105.808z"/>
				</g>
				<path fill-rule="evenodd" clip-rule="evenodd" fill="#F0B16C" d="M116.803,208.979l-35.756,14.862l13.879-38.292
					c4.12,3.031,8.136,6.59,11.931,10.652C110.65,200.266,113.974,204.566,116.803,208.979z"/>
				<g>
					<path fill-rule="evenodd" clip-rule="evenodd" fill="#F5D5B3" d="M94.926,185.55l-13.879,38.292l22.057-31.429
						C100.448,189.89,97.711,187.599,94.926,185.55z"/>
					<path fill-rule="evenodd" clip-rule="evenodd" fill="#F0B16C" d="M103.104,192.413l-22.057,31.429l29.349-23.62
						c-1.129-1.36-2.31-2.702-3.539-4.02C105.628,194.886,104.375,193.622,103.104,192.413z"/>
					<path fill-rule="evenodd" clip-rule="evenodd" fill="#C78B4B" d="M110.396,200.222l-29.349,23.62l35.756-14.862
						C114.891,205.996,112.752,203.064,110.396,200.222z"/>
				</g>
				<path fill-rule="evenodd" clip-rule="evenodd" fill="#1E1E1E" d="M92.86,218.931l-11.813,4.911l4.586-12.65
					c1.362,1.002,2.687,2.178,3.941,3.519C90.827,216.052,91.925,217.474,92.86,218.931z"/>
			</g>
			<path fill-rule="evenodd" clip-rule="evenodd" fill="#BDBDBD" d="M85.661,109.698c0.778,5.031,2.999,9.765,6.486,13.5
				c9.066,9.708,23.761,9.708,32.826,0c9.066-9.708,9.066-25.443,0-35.152c-3.489-3.735-7.91-6.112-12.607-6.948l11.623,12.448
				l-5.643,22.554l-21.062,6.045L85.661,109.698z"/>
		</g>
	</g>
	<circle fill="none" stroke="#80DEEA" stroke-width="7.2257" stroke-miterlimit="10" cx="150" cy="150" r="140"/>
</g>
</svg>
