<?xml version="1.0" encoding="utf-8"?>
<!-- Generator: Adobe Illustrator 16.0.0, SVG Export Plug-In . SVG Version: 6.00 Build 0)  -->
<!DOCTYPE svg PUBLIC "-//W3C//DTD SVG 1.1//EN" "http://www.w3.org/Graphics/SVG/1.1/DTD/svg11.dtd">
<svg version="1.1" id="Layer_1" xmlns="http://www.w3.org/2000/svg" xmlns:xlink="http://www.w3.org/1999/xlink" x="0px" y="0px"
	 width="300px" height="300px" viewBox="0 0 300 300" enable-background="new 0 0 300 300" xml:space="preserve">
<g>
	<circle fill="#E0F7FA" cx="150" cy="150" r="126.45"/>
	<circle fill="none" stroke="#80DEEA" stroke-width="7.2257" stroke-miterlimit="10" cx="150" cy="150" r="140"/>
	<g>
		<path fill="none" d="M145.644,251.938l-0.002-11.051L93.89,206.875l6.921-20.957l-48.612-35.233l62.271-6.125l10.868-32.907
			l13.501-1.974l7.166-58.908l41.507,51.791l13.71-2.004l39.863,50.011l6.667-0.001l25.566,26.656
			c1.842-8.59,2.82-17.498,2.82-26.637c0-69.837-56.613-126.451-126.45-126.451c-69.836,0-126.45,56.614-126.45,126.451
			c0,69.836,56.613,126.448,126.45,126.448c6.862,0,13.593-0.553,20.158-1.604L145.644,251.938z"/>
		<path fill="none" d="M235.845,243.133l-17.096,13.387C224.831,252.547,230.549,248.064,235.845,243.133z"/>
		<path opacity="0.7" fill="#B2DFDB" d="M192.603,78.062l-4.488,22.695l-48.673,7.116l-13.501,1.974l-10.868,32.906l-13.658,41.358
			l-20.208,9.563l95.138,79.482c17.82-2.855,28.498-8.965,43.008-18.443l17.096-13.387c18.588-17.313,31.32-36.951,36.843-62.707
			L192.603,78.062z"/>
	</g>
	<g>
		<circle fill="#D0D8DC" stroke="#546E7A" stroke-width="9.0321" stroke-miterlimit="10" cx="151.894" cy="147.542" r="80.475"/>
		<g>
			<g>
				<g>
					<path fill="#434343" d="M153.197,153.573c1.431,1.427-0.304,4.818-3.854,7.535l-33.315,25.5
						c-3.55,2.717-3.854,2.368-0.675-0.775l29.462-29.139C147.994,153.551,151.766,152.146,153.197,153.573z"/>
				</g>
				<g>
					<path fill="#FFFFFF" d="M185.841,113.651c3.068-3.252,3.418-2.961,0.775,0.646l-25.506,34.825
						c-2.643,3.607-5.989,5.401-7.438,3.987c-1.448-1.415-0.123-5.232,2.945-8.484L185.841,113.651z"/>
				</g>
				<g>
					<path fill="#434343" d="M156.269,144.434c-3.068,3.252-6.926,4.549-8.573,2.882s-0.125-5.299,3.383-8.071l33.287-26.31
						c3.508-2.772,3.867-2.38,0.8,0.872L156.269,144.434z"/>
				</g>
				<g>
					<path fill="#FFFFFF" d="M147.134,147.74c1.659,1.604,0.422,5.497-2.748,8.649l-28.761,28.605
						c-3.17,3.153-3.576,2.801-0.902-0.782l24.533-32.874C141.931,147.754,145.476,146.135,147.134,147.74z"/>
				</g>
			</g>
			
				<ellipse transform="matrix(-0.7067 -0.7075 0.7075 -0.7067 149.6834 363.3585)" fill="#E9E4D0" cx="150.15" cy="150.656" rx="8.478" ry="6.941"/>
			<path fill="#BDB9AB" d="M155.12,145.816c-0.021-0.021-0.038-0.044-0.06-0.065c-3.309-3.313-8.19-3.802-10.902-1.092
				c-2.713,2.71-2.229,7.591,1.081,10.904c0.02,0.021,0.043,0.039,0.064,0.061L155.12,145.816z"/>
			<path fill="#7C7C77" d="M149.391,149.896c0.343-0.342,0.962-0.28,1.381,0.14c0.419,0.42,0.48,1.039,0.137,1.382
				c-0.344,0.344-0.963,0.279-1.381-0.141C149.109,150.86,149.046,150.241,149.391,149.896z"/>
		</g>
	</g>
	<g opacity="0.3">
		<g>
			<g>
				<g>
					<path fill="#80702C" d="M151.109,153.053c-1.78,0.221-4.168,1.537-6.295,3.641l-29.462,29.139
						c-3.178,3.145-2.875,3.494,0.675,0.777l33.317-25.5c0.653-0.502,1.243-1.023,1.765-1.551V153.053z"/>
				</g>
				<g>
					<path fill="#80702C" d="M151.109,139.22l-0.031,0.024c-3.506,2.771-5.029,6.403-3.383,8.071
						c0.763,0.772,2.001,0.901,3.414,0.502V139.22z"/>
				</g>
				<g>
					<path fill="#FFEE9C" d="M147.134,147.741c1.658,1.604,0.421,5.498-2.749,8.65l-28.76,28.602
						c-3.17,3.152-3.577,2.803-0.902-0.781l24.533-32.873C141.931,147.754,145.476,146.135,147.134,147.741z"/>
				</g>
			</g>
			<g>
				<path fill="#E9E4D0" d="M151.109,143.315c-2.551-0.813-5.202-0.404-6.951,1.344c-2.713,2.71-2.229,7.591,1.081,10.904
					c1.709,1.711,3.838,2.662,5.871,2.816V143.315z"/>
			</g>
			<g>
				<path fill="#BDB9AB" d="M151.109,143.315c-2.551-0.813-5.202-0.404-6.951,1.344c-2.713,2.71-2.229,7.591,1.081,10.904
					c0.02,0.021,0.043,0.039,0.064,0.061l5.806-5.8V143.315z"/>
			</g>
		</g>
	</g>
	<g>
		<g>
			<g>
				<path fill="#1B0F0E" d="M151.795,84.554c0,0-0.65-5.576-0.65-12.454c0-6.878,1.301-6.878,1.301,0
					C152.445,78.979,151.795,84.554,151.795,84.554z"/>
			</g>
		</g>
	</g>
	<g>
		<g>
			<g>
				<path fill="#1B0F0E" d="M151.795,212.086c0,0,0.65,5.576,0.65,12.454c0,6.879-1.301,6.879-1.301,0
					C151.145,217.662,151.795,212.086,151.795,212.086z"/>
			</g>
		</g>
	</g>
	<g>
		<g>
			<g>
				<path fill="#1B0F0E" d="M88.029,148.321c0,0-5.576,0.65-12.454,0.65c-6.877,0-6.877-1.301,0-1.301
					C82.454,147.67,88.029,148.321,88.029,148.321z"/>
			</g>
		</g>
	</g>
	<g>
		<g>
			<g>
				<path fill="#1B0F0E" d="M215.561,148.321c0,0,5.576-0.65,12.454-0.65s6.878,1.301,0,1.301S215.561,148.321,215.561,148.321z"/>
			</g>
		</g>
	</g>
</g>
</svg>
