<?xml version="1.0" encoding="utf-8"?>
<!-- Generator: Adobe Illustrator 16.0.0, SVG Export Plug-In . SVG Version: 6.00 Build 0)  -->
<!DOCTYPE svg PUBLIC "-//W3C//DTD SVG 1.1//EN" "http://www.w3.org/Graphics/SVG/1.1/DTD/svg11.dtd">
<svg version="1.1" id="Layer_1" xmlns="http://www.w3.org/2000/svg" xmlns:xlink="http://www.w3.org/1999/xlink" x="0px" y="0px"
	 width="300px" height="300px" viewBox="0 0 300 300" enable-background="new 0 0 300 300" xml:space="preserve">
<circle fill-rule="evenodd" clip-rule="evenodd" fill="#E0F7FA" cx="150" cy="150" r="130"/>
<circle fill-rule="evenodd" clip-rule="evenodd" fill="#E0F7FA" cx="150" cy="150" r="130"/>
<circle fill-rule="evenodd" clip-rule="evenodd" fill="none" stroke="#80DEEA" stroke-width="5" stroke-miterlimit="10" cx="150" cy="150" r="140"/>
<g>
	<path opacity="0.8" fill-rule="evenodd" clip-rule="evenodd" fill="#B2DFDB" d="M149.99,203.826
		c55.21,0,72.242,6.984,72.242,15.551c0,8.592-13.92,15.574-72.242,15.574c-58.288,0-72.223-6.982-72.223-15.574
		C77.768,210.811,94.818,203.826,149.99,203.826L149.99,203.826z"/>
	<g>
		<rect x="119.499" y="109.362" fill="#0099B0" width="61.911" height="107.728"/>
		<rect x="107.374" y="217.09" fill="#F29232" width="86.171" height="4.602"/>
		<rect x="136.676" y="190.447" fill="#F29232" width="29.128" height="2.08"/>
		<rect x="140.083" y="192.527" fill="#ABE1FA" width="22.36" height="20.541"/>
		<g>
			<path fill="#A7A9AC" d="M172.188,171.652h-0.366c-1.241,0-2.24-1.004-2.24-2.24v-9.637c0-1.24,0.999-2.248,2.24-2.248h0.366
				c1.242,0,2.235,1.008,2.235,2.248v9.637C174.423,170.648,173.43,171.652,172.188,171.652z"/>
			<path fill="#8A8C8E" d="M179.667,164.027h-7.278c-0.478,0-0.867-0.385-0.867-0.861l0,0c0-0.48,0.39-0.867,0.867-0.867h7.278
				c0.479,0,0.868,0.387,0.868,0.867l0,0C180.535,163.643,180.146,164.027,179.667,164.027z"/>
			<path fill="#BCBEC0" d="M179.302,163.676h-7.283c-0.478,0-0.868-0.375-0.868-0.867l0,0c0-0.469,0.391-0.863,0.868-0.863h7.283
				c0.474,0,0.866,0.395,0.866,0.863l0,0C180.168,163.301,179.775,163.676,179.302,163.676z"/>
			<path fill="#1D1714" d="M172.629,165.85c0,0.291-0.24,0.521-0.521,0.521c-0.295,0-0.52-0.23-0.52-0.521
				c0-0.285,0.225-0.52,0.52-0.52C172.389,165.33,172.629,165.564,172.629,165.85z"/>
			<polygon fill="#1D1714" points="171.799,166.152 171.687,167.037 172.53,167.037 172.417,166.152 			"/>
		</g>
		<rect x="114.647" y="109.362" fill="#ABE1FA" width="4.852" height="107.728"/>
		<rect x="114.676" y="104.768" fill="#ABE1FA" width="71.595" height="4.851"/>
		<rect x="181.41" y="109.362" fill="#ABE1FA" width="4.856" height="107.728"/>
	</g>
	
		<line fill-rule="evenodd" clip-rule="evenodd" fill="none" stroke="#B2DFDB" stroke-width="4.0264" stroke-miterlimit="10" x1="108.509" y1="149.972" x2="85.777" y2="141.911"/>
	
		<line fill-rule="evenodd" clip-rule="evenodd" fill="none" stroke="#B2DFDB" stroke-width="4.0264" stroke-miterlimit="10" x1="105.271" y1="119.907" x2="85.777" y2="106.221"/>
	
		<line fill-rule="evenodd" clip-rule="evenodd" fill="none" stroke="#B2DFDB" stroke-width="4.0264" stroke-miterlimit="10" x1="112.529" y1="96.421" x2="101.872" y2="78.396"/>
	
		<line fill-rule="evenodd" clip-rule="evenodd" fill="none" stroke="#B2DFDB" stroke-width="4.7992" stroke-miterlimit="10" x1="133.672" y1="88.064" x2="132.237" y2="65.048"/>
	
		<line fill-rule="evenodd" clip-rule="evenodd" fill="none" stroke="#B2DFDB" stroke-width="4.7992" stroke-miterlimit="10" x1="158.858" y1="88.064" x2="160.978" y2="65.048"/>
	
		<line fill-rule="evenodd" clip-rule="evenodd" fill="none" stroke="#B2DFDB" stroke-width="4.0264" stroke-miterlimit="10" x1="181.41" y1="92.409" x2="193.545" y2="73.194"/>
	
		<line fill-rule="evenodd" clip-rule="evenodd" fill="none" stroke="#B2DFDB" stroke-width="4.0264" stroke-miterlimit="10" x1="196.863" y1="105.406" x2="213.196" y2="92.409"/>
	
		<line fill-rule="evenodd" clip-rule="evenodd" fill="none" stroke="#B2DFDB" stroke-width="4.0264" stroke-miterlimit="10" x1="198.128" y1="129.172" x2="213.196" y2="123.313"/>
	
		<line fill-rule="evenodd" clip-rule="evenodd" fill="none" stroke="#B2DFDB" stroke-width="4.0264" stroke-miterlimit="10" x1="195.194" y1="149.972" x2="213.196" y2="145.941"/>
</g>
</svg>
