<?xml version="1.0" encoding="utf-8"?>
<!-- Generator: Adobe Illustrator 16.0.0, SVG Export Plug-In . SVG Version: 6.00 Build 0)  -->
<!DOCTYPE svg PUBLIC "-//W3C//DTD SVG 1.1//EN" "http://www.w3.org/Graphics/SVG/1.1/DTD/svg11.dtd">
<svg version="1.1" id="Layer_1" xmlns="http://www.w3.org/2000/svg" xmlns:xlink="http://www.w3.org/1999/xlink" x="0px" y="0px"
	 width="300px" height="300px" viewBox="0 0 300 300" enable-background="new 0 0 300 300" xml:space="preserve">
<circle fill-rule="evenodd" clip-rule="evenodd" fill="#E0F7FA" cx="150" cy="150" r="130"/>
<circle fill-rule="evenodd" clip-rule="evenodd" fill="#E0F7FA" cx="150" cy="150" r="130"/>
<circle fill-rule="evenodd" clip-rule="evenodd" fill="none" stroke="#80DEEA" stroke-width="5" stroke-miterlimit="10" cx="150" cy="150" r="140"/>
<g>
	<path opacity="0.8" fill-rule="evenodd" clip-rule="evenodd" fill="#B2DFDB" d="M150,179.004c67.008,0,87.687,8.479,87.687,18.877
		c0,10.434-16.89,18.91-87.687,18.91c-70.765,0-87.687-8.477-87.687-18.91C62.313,187.482,83.015,179.004,150,179.004L150,179.004z"
		/>
	<g>
		<path fill="#F29232" d="M214.653,172.648c0.355,0.244,0.69,0.525,0.992,0.822c3.312-7.918,5.077-16.469,5.077-25.137
			c0-35.912-29.209-65.125-65.116-65.125c-35.911,0-65.119,29.213-65.119,65.125c0,8.811,1.727,17.336,5.017,25.192
			c0.318-0.324,0.669-0.617,1.052-0.877c0.553-2.131,1.893-4.029,3.816-5.252c-2.073-6.041-3.179-12.463-3.179-19.063
			c0-32.207,26.201-58.408,58.413-58.408c32.202,0,58.398,26.201,58.398,58.408c0,6.6-1.08,13.01-3.163,19.069
			C212.767,168.625,214.095,170.521,214.653,172.648z"/>
		<path fill="#8D4666" d="M214.653,172.648c0.45,1.727,0.393,3.604-0.299,5.398l-7.573,19.828c-0.681,1.771-1.865,3.201-3.332,4.184
			c3.109,0.393,6.208-1.355,7.376-4.422l6.405-16.756c1.009-2.641,0.297-5.518-1.585-7.41
			C215.344,173.174,215.009,172.893,214.653,172.648z"/>
		<path fill="#FFBD09" d="M206.781,197.875l7.573-19.828c0.691-1.795,0.749-3.672,0.299-5.398c-0.559-2.127-1.887-4.023-3.812-5.246
			c-0.494-0.313-1.031-0.586-1.6-0.797l-2.157-0.834c0.982,2.471,1.095,5.303,0.068,7.988l-9.444,24.713
			c-0.659,1.711-1.694,3.15-2.971,4.289l0.597,0.227c2.8,1.074,5.797,0.623,8.114-0.93
			C204.916,201.076,206.101,199.646,206.781,197.875z"/>
		<path fill="#8D4666" d="M104.422,197.875l-7.579-19.828c-0.686-1.795-0.745-3.672-0.287-5.398
			c-0.383,0.26-0.733,0.553-1.052,0.877c-1.84,1.887-2.53,4.734-1.53,7.355l6.409,16.756c1.169,3.066,4.262,4.814,7.372,4.422
			C106.287,201.076,105.102,199.646,104.422,197.875z"/>
		<path fill="#FFBD09" d="M96.556,172.648c-0.458,1.727-0.398,3.604,0.287,5.398l7.579,19.828c0.68,1.771,1.865,3.201,3.333,4.184
			c2.311,1.553,5.313,2.004,8.114,0.93l0.601-0.227c-1.281-1.139-2.317-2.578-2.971-4.289l-9.449-24.713
			c-1.026-2.686-0.92-5.518,0.074-7.988l-2.168,0.834c-0.563,0.211-1.084,0.484-1.584,0.791
			C98.448,168.619,97.108,170.518,96.556,172.648z"/>
		<path fill="#454C53" d="M104.05,173.76l9.449,24.713c0.653,1.711,1.689,3.15,2.971,4.289c2.961,2.619,7.244,3.549,11.188,2.039
			l5.979-2.279c5.654-2.164,8.487-8.504,6.325-14.164l-9.445-24.719c-2.168-5.658-8.503-8.492-14.168-6.328l-5.968,2.285
			c-2.978,1.131-5.161,3.434-6.256,6.176C103.13,168.242,103.023,171.074,104.05,173.76z"/>
		<path fill="#454C53" d="M197.709,198.473l9.444-24.713c1.026-2.686,0.914-5.518-0.068-7.988c-1.096-2.742-3.279-5.045-6.261-6.176
			l-5.969-2.285c-5.665-2.164-12.001,0.67-14.163,6.328l-9.455,24.719c-2.157,5.66,0.67,12,6.33,14.164l5.979,2.279
			c3.948,1.51,8.227,0.58,11.191-2.039C196.015,201.623,197.05,200.184,197.709,198.473z"/>
	</g>
</g>
</svg>
