<?xml version="1.0" encoding="utf-8"?>
<!-- Generator: Adobe Illustrator 16.0.0, SVG Export Plug-In . SVG Version: 6.00 Build 0)  -->
<!DOCTYPE svg PUBLIC "-//W3C//DTD SVG 1.1//EN" "http://www.w3.org/Graphics/SVG/1.1/DTD/svg11.dtd">
<svg version="1.1" id="Layer_1" xmlns="http://www.w3.org/2000/svg" xmlns:xlink="http://www.w3.org/1999/xlink" x="0px" y="0px"
	 width="300px" height="300px" viewBox="0 0 300 300" enable-background="new 0 0 300 300" xml:space="preserve">
<g>
	<g>
		<circle fill="#E0F7FA" cx="150" cy="150" r="121.137"/>
		<path fill="#B2DFDB" d="M81.955,222.992l84.074,47.087c59.324-7.844,105.107-58.61,105.107-120.079c0-8.358-0.847-16.52-2.46-24.4
			l-62.849-48.59L81.955,222.992z"/>
		<g>
			<g>
				<path fill="#E7E5E5" d="M228.281,190.945c0,0-6.357,12.367,0.728,26.295H82.682l-0.727-28.121L228.281,190.945z"/>
				<g>
					<defs>
						<path id="SVGID_1_" d="M228.281,190.945c0,0-6.357,12.367,0.728,26.295H82.682l-0.727-28.121L228.281,190.945z"/>
					</defs>
					<clipPath id="SVGID_2_">
						<use xlink:href="#SVGID_1_"  overflow="visible"/>
					</clipPath>
					<g clip-path="url(#SVGID_2_)">
						<g>
							<g>
								<g>
									<rect x="81.955" y="192.395" fill="#D0D1D1" width="146.027" height="1.146"/>
								</g>
								<g>
									<rect x="81.955" y="194.688" fill="#D0D1D1" width="146.027" height="1.146"/>
								</g>
							</g>
							<g>
								<g>
									<rect x="81.955" y="198.127" fill="#D0D1D1" width="146.027" height="1.147"/>
								</g>
								<g>
									<rect x="81.955" y="201.566" fill="#D0D1D1" width="146.027" height="1.148"/>
								</g>
							</g>
						</g>
						<g>
							<g>
								<g>
									<rect x="81.955" y="203.859" fill="#D0D1D1" width="146.027" height="1.147"/>
								</g>
							</g>
							<g>
								<g>
									<rect x="81.955" y="206.152" fill="#D0D1D1" width="146.027" height="1.148"/>
								</g>
								<g>
									<rect x="81.955" y="209.593" fill="#D0D1D1" width="146.027" height="1.146"/>
								</g>
							</g>
							<g>
								<g>
									<rect x="81.955" y="213.033" fill="#D0D1D1" width="146.027" height="1.145"/>
								</g>
							</g>
						</g>
					</g>
				</g>
				<path fill="#78909C" d="M83.91,200.764c0-1.117,0-2.369,0-3.729c0-6.627,5.374-6.09,5.374-6.09h141.929v-7.611H87.82
					c-3.012,0-5.101,0.869-6.556,2.131v-0.002c0,0-0.007,0.006-0.009,0.008c-0.126,0.109-0.246,0.223-0.361,0.338
					c-0.015,0.012-0.027,0.023-0.04,0.035c-0.062,0.066-0.131,0.129-0.193,0.194c-2.713,2.74-13.211,15.164-1.124,32.722
					c1.327,2.291,3.779,4.232,8.282,4.232h143.393v-7.613H89.284c0,0-5.374,0.535-5.374-6.09c0-1.361,0-2.612,0-3.729
					C83.91,205.56,83.91,203.646,83.91,200.764z"/>
			</g>
			<g>
				<path fill="#E7E5E5" d="M222.109,117.913c0,0-6.35,12.367,0.725,26.297H76.708l-0.726-28.123L222.109,117.913z"/>
				<g>
					<defs>
						<path id="SVGID_3_" d="M222.109,117.913c0,0-6.35,12.367,0.725,26.297H76.708l-0.726-28.123L222.109,117.913z"/>
					</defs>
					<clipPath id="SVGID_4_">
						<use xlink:href="#SVGID_3_"  overflow="visible"/>
					</clipPath>
					<g clip-path="url(#SVGID_4_)">
						<g>
							<g>
								<g>
									<rect x="75.982" y="119.363" fill="#D0D1D1" width="145.829" height="1.147"/>
								</g>
								<g>
									<rect x="75.982" y="121.656" fill="#D0D1D1" width="145.829" height="1.147"/>
								</g>
							</g>
							<g>
								<g>
									<rect x="75.982" y="125.095" fill="#D0D1D1" width="145.829" height="1.147"/>
								</g>
								<g>
									<rect x="75.982" y="128.535" fill="#D0D1D1" width="145.829" height="1.147"/>
								</g>
							</g>
						</g>
						<g>
							<g>
								<g>
									<rect x="75.982" y="130.829" fill="#D0D1D1" width="145.829" height="1.146"/>
								</g>
							</g>
							<g>
								<g>
									<rect x="75.982" y="133.122" fill="#D0D1D1" width="145.829" height="1.145"/>
								</g>
								<g>
									<rect x="75.982" y="136.562" fill="#D0D1D1" width="145.829" height="1.146"/>
								</g>
							</g>
							<g>
								<g>
									<rect x="75.982" y="140.002" fill="#D0D1D1" width="145.829" height="1.145"/>
								</g>
							</g>
						</g>
					</g>
				</g>
				<path fill="#455B65" d="M77.933,127.733c0-1.118,0-2.369,0-3.732c0-6.623,5.367-6.088,5.367-6.088h141.735v-7.611H81.837
					c-3.007,0-5.095,0.87-6.547,2.129v0c0,0-0.006,0.006-0.006,0.008c-0.127,0.109-0.246,0.223-0.362,0.337
					c-0.013,0.013-0.026,0.026-0.038,0.039c-0.066,0.063-0.134,0.126-0.194,0.194c-2.708,2.739-13.192,15.161-1.123,32.721
					c1.326,2.29,3.773,4.231,8.271,4.231h143.198v-7.613H83.3c0,0-5.367,0.537-5.367-6.087c0-1.363,0-2.613,0-3.733
					C77.933,132.527,77.933,130.615,77.933,127.733z"/>
			</g>
			<g>
				<rect x="72.938" y="149.96" fill="#016064" width="159.18" height="33.374"/>
				<rect x="82.662" y="158.041" fill="#00ACC1" width="40.941" height="18.289"/>
				<rect x="72.938" y="166.646" opacity="0.4" fill="#0297A7" width="159.18" height="16.688"/>
			</g>
			<g>
				<g>
					<rect x="99.23" y="77.009" fill="#B0BEC5" width="106.598" height="33.375"/>
					<rect x="192.922" y="77.009" fill="#78909C" width="2.782" height="33.375"/>
					<rect x="180.998" y="77.009" fill="#78909C" width="2.781" height="33.375"/>
					<rect x="107.066" y="83.271" fill="#78909C" width="21.089" height="21.09"/>
				</g>
				<rect x="99.23" y="93.696" opacity="0.4" fill="#D0D8DC" width="106.598" height="16.688"/>
			</g>
		</g>
	</g>
	<circle fill="none" stroke="#80DEEA" stroke-width="7.2257" stroke-miterlimit="10" cx="150" cy="150" r="140"/>
</g>
</svg>
