<?xml version="1.0" encoding="utf-8"?>
<!-- Generator: Adobe Illustrator 16.0.0, SVG Export Plug-In . SVG Version: 6.00 Build 0)  -->
<!DOCTYPE svg PUBLIC "-//W3C//DTD SVG 1.1//EN" "http://www.w3.org/Graphics/SVG/1.1/DTD/svg11.dtd">
<svg version="1.1" id="Layer_1" xmlns="http://www.w3.org/2000/svg" xmlns:xlink="http://www.w3.org/1999/xlink" x="0px" y="0px"
	 width="300px" height="300px" viewBox="0 0 300 300" enable-background="new 0 0 300 300" xml:space="preserve">
<g>
	<g>
		<circle fill="#E0F7FA" cx="150" cy="150" r="121.138"/>
		<path fill="#B2DFDB" d="M105.528,230.594l60.501,39.486c59.325-7.844,105.108-58.612,105.108-120.08
			c0-8.358-0.848-16.52-2.459-24.401l-81.425-67.086L105.528,230.594z"/>
		<g>
			<g opacity="0.25">
				<g>
					<defs>
						<path id="SVGID_1_" d="M193.087,224.831c0,7.801-6.376,14.179-14.18,14.179H115.17c-7.803,0-14.18-6.378-14.18-14.179V73.635
							c0-7.796,6.377-14.178,14.18-14.178h63.737c7.804,0,14.18,6.382,14.18,14.178V224.831z"/>
					</defs>
					<use xlink:href="#SVGID_1_"  overflow="visible" fill="#4E4E4E"/>
					<clipPath id="SVGID_2_">
						<use xlink:href="#SVGID_1_"  overflow="visible"/>
					</clipPath>
					<rect x="100.985" y="59.456" clip-path="url(#SVGID_2_)" fill="#4E4E4E" width="92.108" height="179.545"/>
					<path clip-path="url(#SVGID_2_)" fill="#4E4E4E" d="M218.375,149.229c0,39.414-31.939,71.356-71.335,71.356
						c-39.397,0-71.339-31.942-71.339-71.356c0-39.397,31.942-71.337,71.339-71.337C186.436,77.892,218.375,109.832,218.375,149.229
						z"/>
					<path clip-path="url(#SVGID_2_)" fill="#4E4E4E" d="M214.356,149.229c0,37.195-30.142,67.336-67.316,67.336
						c-37.178,0-67.317-30.141-67.317-67.336c0-37.176,30.139-67.315,67.317-67.315C184.215,81.914,214.356,112.053,214.356,149.229
						z"/>
					<path clip-path="url(#SVGID_2_)" fill="#4E4E4E" d="M210.333,149.229c0,34.957-28.338,63.314-63.293,63.314
						c-34.959,0-63.297-28.357-63.297-63.314c0-34.958,28.338-63.294,63.297-63.294C181.995,85.935,210.333,114.271,210.333,149.229
						z"/>
					<path clip-path="url(#SVGID_2_)" fill="#4E4E4E" d="M205.039,149.229c0,32.035-25.966,58.021-57.999,58.021
						c-32.037,0-58.004-25.985-58.004-58.021c0-32.036,25.967-58.003,58.004-58.003C179.073,91.226,205.039,117.193,205.039,149.229
						z"/>
				</g>
			</g>
			<g>
				<g>
					<defs>
						<path id="SVGID_3_" d="M192.491,219.293c0,7.774-6.357,14.132-14.131,14.132h-63.537c-7.774,0-14.131-6.357-14.131-14.132
							V68.585c0-7.772,6.357-14.132,14.131-14.132h63.537c7.773,0,14.131,6.36,14.131,14.132V219.293z"/>
					</defs>
					<use xlink:href="#SVGID_3_"  overflow="visible" fill="#546E7A"/>
					<clipPath id="SVGID_4_">
						<use xlink:href="#SVGID_3_"  overflow="visible"/>
					</clipPath>
					<rect x="100.686" y="54.45" clip-path="url(#SVGID_4_)" fill="#546E7A" width="91.813" height="178.969"/>
					<path clip-path="url(#SVGID_4_)" fill="#546E7A" d="M217.7,143.933c0,39.289-31.841,71.128-71.108,71.128
						c-39.27,0-71.106-31.84-71.106-71.128c0-39.268,31.836-71.105,71.106-71.105C185.859,72.828,217.7,104.666,217.7,143.933z"/>
					<path clip-path="url(#SVGID_4_)" fill="#546E7A" d="M213.691,143.933c0,37.076-30.043,67.12-67.1,67.12
						c-37.056,0-67.1-30.044-67.1-67.12c0-37.055,30.044-67.098,67.1-67.098C183.648,76.835,213.691,106.878,213.691,143.933z"/>
					<path clip-path="url(#SVGID_4_)" fill="#546E7A" d="M209.682,143.933c0,34.844-28.244,63.11-63.09,63.11
						c-34.843,0-63.092-28.266-63.092-63.11s28.249-63.089,63.092-63.089C181.438,80.844,209.682,109.089,209.682,143.933z"/>
					<path clip-path="url(#SVGID_4_)" fill="#546E7A" d="M204.407,143.933c0,31.934-25.883,57.834-57.815,57.834
						s-57.815-25.9-57.815-57.834c0-31.933,25.883-57.816,57.815-57.816S204.407,112,204.407,143.933z"/>
				</g>
			</g>
			<g>
				<g>
					<rect x="105.046" y="79.705" fill="#E0E0E0" width="83.061" height="127.226"/>
				</g>
			</g>
			<polygon opacity="0.15" fill="#FFFFFF" points="105.046,207.277 105.328,80.164 187.335,80.164 			"/>
			<path fill="#FAFBFB" d="M157.198,219.224c0,1.993-1.616,3.611-3.612,3.611h-13.422c-1.995,0-3.612-1.618-3.612-3.611l0,0
				c0-1.995,1.618-3.611,3.612-3.611h13.422C155.582,215.612,157.198,217.229,157.198,219.224L157.198,219.224z"/>
			<g>
				<path fill="#F5F5F5" d="M157.574,68.341c0,1.125-0.912,2.037-2.037,2.037h-17.586c-1.125,0-2.038-0.912-2.038-2.037l0,0
					c0-1.126,0.914-2.039,2.038-2.039h17.586C156.662,66.302,157.574,67.214,157.574,68.341L157.574,68.341z"/>
				<circle fill="#F5F5F5" cx="125.718" cy="68.341" r="2.502"/>
			</g>
		</g>
	</g>
	<circle fill="none" stroke="#80DEEA" stroke-width="7.2257" stroke-miterlimit="10" cx="150" cy="150" r="140"/>
</g>
</svg>
