<?xml version="1.0" encoding="utf-8"?>
<!-- Generator: Adobe Illustrator 16.0.0, SVG Export Plug-In . SVG Version: 6.00 Build 0)  -->
<!DOCTYPE svg PUBLIC "-//W3C//DTD SVG 1.1//EN" "http://www.w3.org/Graphics/SVG/1.1/DTD/svg11.dtd">
<svg version="1.1" id="Layer_1" xmlns="http://www.w3.org/2000/svg" xmlns:xlink="http://www.w3.org/1999/xlink" x="0px" y="0px"
	 width="300px" height="300px" viewBox="0 0 300 300" enable-background="new 0 0 300 300" xml:space="preserve">
<circle fill-rule="evenodd" clip-rule="evenodd" fill="#E0F7FA" cx="150" cy="150" r="130"/>
<circle fill-rule="evenodd" clip-rule="evenodd" fill="#E0F7FA" cx="150" cy="150" r="130"/>
<circle fill-rule="evenodd" clip-rule="evenodd" fill="none" stroke="#80DEEA" stroke-width="5" stroke-miterlimit="10" cx="150" cy="150" r="140"/>
<g>
	<path opacity="0.8" fill-rule="evenodd" clip-rule="evenodd" fill="#B2DFDB" d="M149.995,175.095
		c77.954,0,102.013,9.865,102.013,21.965c0,12.133-19.65,21.992-102.013,21.992c-82.317,0-102.003-9.859-102.003-21.992
		C47.992,184.96,72.08,175.095,149.995,175.095L149.995,175.095z"/>
	<g>
		<g>
			<g>
				<path fill="#49A4C1" d="M208.006,201.349c0,1.702-1.375,3.077-3.076,3.077H92.691c-1.695,0-3.071-1.375-3.071-3.077v-18.241
					c0-1.702,1.376-3.077,3.071-3.077H204.93c1.701,0,3.076,1.375,3.076,3.077V201.349z"/>
				<rect x="92.865" y="171.642" fill="#002C3D" width="111.896" height="8.389"/>
				<path fill="#49A4C1" d="M180.297,115.759v-8.023h-10.92v8.023h-20.566h-20.562v-8.023h-10.926v8.023
					c0,0-6.159,41.01-24.458,55.883h55.945h55.95C186.462,156.769,180.297,115.759,180.297,115.759z"/>
				<g>
					<path fill="#C9C9C9" d="M169.281,133.956c-6.12-10.656-19.719-14.323-30.364-8.197c-10.656,6.12-14.323,19.719-8.197,30.364
						c6.12,10.65,19.719,14.322,30.364,8.197C171.735,158.2,175.407,144.602,169.281,133.956z M154.122,125.669
						c1.695,0,3.071,1.387,3.071,3.076c0,1.702-1.387,3.077-3.089,3.071c-1.689,0-3.071-1.381-3.065-3.076
						C151.045,127.039,152.421,125.663,154.122,125.669z M143.881,126.202c1.471-0.848,3.352-0.337,4.199,1.134
						c0.849,1.472,0.343,3.347-1.128,4.2c-1.477,0.842-3.358,0.337-4.2-1.14C141.904,128.931,142.409,127.056,143.881,126.202z
						 M135.284,131.783c0.854-1.471,2.734-1.971,4.2-1.122c1.471,0.858,1.977,2.739,1.117,4.21c-0.848,1.466-2.734,1.965-4.2,1.117
						C134.931,135.136,134.431,133.249,135.284,131.783z M130.624,140.918c0.006-1.701,1.388-3.07,3.089-3.07
						c1.695,0.005,3.071,1.386,3.065,3.076c-0.006,1.701-1.382,3.077-3.083,3.071C132,143.995,130.624,142.62,130.624,140.918z
						 M131.157,151.159c-0.848-1.477-0.331-3.357,1.135-4.205c1.477-0.848,3.357-0.337,4.2,1.134c0.854,1.472,0.337,3.353-1.135,4.2
						C133.893,153.136,132.012,152.625,131.157,151.159z M140.95,158.639c-0.854,1.465-2.74,1.965-4.206,1.117
						c-1.471-0.854-1.971-2.734-1.117-4.2c0.848-1.477,2.734-1.971,4.2-1.123C141.292,155.286,141.798,157.167,140.95,158.639z
						 M145.88,164.41c-1.701,0-3.077-1.381-3.071-3.077c0-1.701,1.381-3.071,3.076-3.071c1.701,0,3.077,1.382,3.071,3.077
						C148.951,163.04,147.575,164.41,145.88,164.41z M156.115,163.877c-1.477,0.842-3.353,0.337-4.2-1.129
						c-0.848-1.477-0.342-3.357,1.135-4.205c1.471-0.843,3.352-0.337,4.193,1.134C158.097,161.147,157.592,163.034,156.115,163.877z
						 M155.84,155.191c-5.614,3.228-12.768,1.291-15.996-4.313c-3.223-5.609-1.285-12.769,4.317-15.997
						c5.609-3.217,12.763-1.285,15.991,4.318C163.381,144.81,161.443,151.968,155.84,155.191z M160.169,135.641
						c-1.465-0.849-1.971-2.729-1.117-4.2c0.854-1.471,2.734-1.971,4.205-1.117c1.472,0.848,1.966,2.74,1.117,4.2
						C163.521,135.994,161.64,136.5,160.169,135.641z M167.704,143.119c-1.472,0.848-3.353,0.343-4.2-1.134
						c-0.848-1.471-0.337-3.353,1.135-4.194c1.471-0.848,3.352-0.343,4.199,1.134C169.681,140.396,169.175,142.271,167.704,143.119z
						"/>
					<path fill="#EFEFEF" d="M169.281,132.929c-6.12-10.651-19.719-14.317-30.364-8.197c-10.656,6.12-14.323,19.719-8.197,30.37
						c6.12,10.65,19.719,14.317,30.364,8.196C171.735,157.179,175.407,143.58,169.281,132.929z M154.122,124.642
						c1.695,0.005,3.071,1.387,3.071,3.082s-1.387,3.071-3.089,3.071c-1.689-0.006-3.071-1.381-3.065-3.088
						C151.045,126.012,152.421,124.642,154.122,124.642z M143.881,125.181c1.471-0.849,3.352-0.343,4.199,1.134
						c0.849,1.471,0.343,3.346-1.128,4.194c-1.477,0.848-3.358,0.343-4.2-1.129C141.904,127.903,142.409,126.028,143.881,125.181z
						 M135.284,130.756c0.854-1.466,2.734-1.966,4.2-1.112c1.471,0.849,1.977,2.734,1.117,4.2c-0.848,1.471-2.734,1.971-4.2,1.117
						C134.931,134.113,134.431,132.232,135.284,130.756z M130.624,139.896c0.006-1.701,1.388-3.077,3.089-3.071
						c1.695,0,3.071,1.382,3.065,3.077c-0.006,1.701-1.382,3.076-3.083,3.071C132,142.974,130.624,141.592,130.624,139.896z
						 M131.157,150.138c-0.848-1.482-0.331-3.357,1.135-4.211c1.477-0.843,3.357-0.332,4.2,1.14
						c0.854,1.465,0.337,3.352-1.135,4.194C133.893,152.114,132.012,151.603,131.157,150.138z M140.95,157.61
						c-0.854,1.472-2.74,1.977-4.206,1.118c-1.471-0.849-1.971-2.734-1.117-4.2c0.848-1.471,2.734-1.971,4.2-1.117
						C141.292,154.265,141.798,156.146,140.95,157.61z M145.88,163.383c-1.701,0-3.077-1.382-3.071-3.077
						c0-1.701,1.381-3.07,3.076-3.07c1.701,0,3.077,1.387,3.071,3.081C148.951,162.013,147.575,163.394,145.88,163.383z
						 M156.115,162.854c-1.477,0.848-3.353,0.337-4.2-1.135c-0.848-1.476-0.342-3.356,1.135-4.198
						c1.471-0.849,3.352-0.343,4.193,1.128C158.097,160.126,157.592,162.007,156.115,162.854z M155.84,154.169
						c-5.614,3.223-12.768,1.291-15.996-4.317c-3.223-5.604-1.285-12.769,4.317-15.99c5.609-3.224,12.763-1.292,15.991,4.316
						C163.381,143.781,161.443,150.946,155.84,154.169z M160.169,134.618c-1.465-0.848-1.971-2.734-1.117-4.199
						c0.854-1.472,2.734-1.971,4.205-1.117c1.472,0.853,1.966,2.729,1.117,4.199C163.521,134.973,161.64,135.467,160.169,134.618z
						 M167.704,142.092c-1.472,0.854-3.353,0.348-4.2-1.129c-0.848-1.471-0.337-3.352,1.135-4.199
						c1.471-0.848,3.352-0.337,4.199,1.134C169.681,139.368,169.175,141.25,167.704,142.092z"/>
					<g>
						<path fill="#002C3D" d="M156.975,151.665l9.758,7.103c0.848,0.611,1.027,1.808,0.416,2.649
							c-0.618,0.849-1.809,1.033-2.656,0.416c-0.163-0.113-0.303-0.264-0.415-0.416L156.975,151.665z"/>
					</g>
				</g>
			</g>
			<g>
				<g>
					<path fill="#49A4C1" d="M186.631,103.232v14.346h25.614v-4.868c0-17.54-14.222-31.762-31.763-31.762h-63.519
						c-17.54,0-31.763,14.222-31.763,31.762v4.868h25.614v-14.346c0-1.129,0.921-2.044,2.05-2.044h71.717
						C185.716,101.188,186.631,102.104,186.631,103.232z"/>
					<path fill="#F2A010" d="M188.169,127.566c-1.134,0-2.049-0.915-2.049-2.049v-8.968c0-1.128,0.915-2.049,2.049-2.049h23.56
						c1.135,0,2.056,0.921,2.056,2.049v8.968c0,1.134-0.921,2.049-2.056,2.049H188.169z"/>
					<path fill="#F2A010" d="M85.769,127.566c-1.129,0-2.044-0.915-2.044-2.049v-8.968c0-1.128,0.915-2.049,2.044-2.049h23.57
						c1.129,0,2.044,0.921,2.044,2.049v8.968c0,1.134-0.915,2.049-2.044,2.049H85.769z"/>
				</g>
			</g>
		</g>
	</g>
</g>
</svg>
