<?xml version="1.0" encoding="utf-8"?>
<!-- Generator: Adobe Illustrator 16.0.0, SVG Export Plug-In . SVG Version: 6.00 Build 0)  -->
<!DOCTYPE svg PUBLIC "-//W3C//DTD SVG 1.1//EN" "http://www.w3.org/Graphics/SVG/1.1/DTD/svg11.dtd">
<svg version="1.1" id="Layer_1" xmlns="http://www.w3.org/2000/svg" xmlns:xlink="http://www.w3.org/1999/xlink" x="0px" y="0px"
	 width="300px" height="300px" viewBox="0 0 300 300" enable-background="new 0 0 300 300" xml:space="preserve">
<g>
	<circle fill="#E0F7FA" cx="150" cy="150" r="126.45"/>
	<circle fill="none" stroke="#80DEEA" stroke-width="7.2257" stroke-miterlimit="10" cx="150" cy="150" r="140"/>
	<g>
		<path fill="none" d="M145.644,251.938l-0.001-11.051L93.89,206.875l6.921-20.957l-48.612-35.232l62.271-6.125l10.868-32.907
			l13.501-1.974l7.166-58.907l41.507,51.791l13.71-2.004l39.864,50.01l6.666-0.001l25.566,26.655
			c1.842-8.589,2.82-17.498,2.82-26.636c0-69.837-56.613-126.45-126.45-126.45c-69.837,0-126.451,56.613-126.451,126.45
			c0,69.836,56.614,126.45,126.451,126.45c6.861,0,13.593-0.553,20.158-1.604L145.644,251.938z"/>
		<path fill="none" d="M235.845,243.133l-17.096,13.389C224.831,252.547,230.549,248.063,235.845,243.133z"/>
		<path opacity="0.7" fill="#B2DFDB" d="M192.603,78.062l-4.488,22.695l-48.673,7.116l-13.501,1.974l-10.868,32.906l-13.658,41.357
			l-20.208,9.563l95.138,79.482c17.82-2.854,28.499-8.963,43.008-18.441l17.096-13.389c18.587-17.313,31.319-36.95,36.842-62.705
			L192.603,78.062z"/>
	</g>
	<g>
		
			<path fill-rule="evenodd" clip-rule="evenodd" fill="#FEFCE9" stroke="#546E7A" stroke-width="5.6664" stroke-miterlimit="22.9256" d="
			M148.524,232.676c42.407,0,76.993-34.912,76.993-77.72c0-42.806-34.586-77.72-76.993-77.72s-76.994,34.914-76.994,77.72
			C71.531,197.764,106.117,232.676,148.524,232.676z"/>
		
			<path fill-rule="evenodd" clip-rule="evenodd" fill="none" stroke="#4E4E4E" stroke-width="2.8334" stroke-miterlimit="22.9256" d="
			M148.525,227.193v-6.508 M156.006,226.797l-0.674-6.473 M163.393,225.625l-1.34-6.366 M170.606,223.679l-1.992-6.188
			 M177.569,220.991l-2.623-5.942 M184.226,217.596l-3.223-5.637 M190.501,213.516l-3.789-5.266 M196.315,208.788l-4.313-4.837
			 M201.618,203.467l-4.791-4.353 M206.333,197.612l-5.216-3.824 M210.407,191.28l-5.583-3.253 M213.796,184.553l-5.889-2.646
			 M216.474,177.513l-6.131-2.011 M218.417,170.215l-6.304-1.352 M219.604,162.744l-6.411-0.68 M220.011,155.179h-6.447
			 M219.617,147.603l-6.411,0.679 M218.455,140.12l-6.307,1.352 M216.526,132.813l-6.131,2.011 M213.864,125.76l-5.89,2.646
			 M210.495,119.014l-5.582,3.253 M206.453,112.654l-5.216,3.825 M201.769,106.759l-4.792,4.354 M196.496,101.381l-4.313,4.836
			 M190.694,96.597l-3.788,5.265 M184.419,92.457l-3.222,5.634 M177.756,89.011l-2.623,5.944 M170.778,86.283l-1.991,6.188
			 M163.548,84.296l-1.34,6.365 M156.146,83.072l-0.674,6.472 M148.524,82.689v6.506 M141.044,83.084l0.674,6.471 M133.659,84.257
			l1.339,6.365 M126.443,86.202l1.993,6.189 M119.481,88.889l2.623,5.944 M112.823,92.288l3.223,5.634 M106.549,96.366l3.789,5.264
			 M100.735,101.094l4.313,4.835 M95.432,106.415l4.79,4.354 M90.719,112.268l5.213,3.824 M86.643,118.601l5.582,3.252
			 M83.255,125.327l5.887,2.647 M80.577,132.368l6.13,2.011 M78.634,139.666l6.304,1.351 M77.447,147.137l6.409,0.681
			 M77.04,154.703h6.445 M77.433,162.279l6.41-0.68 M78.597,169.761l6.304-1.353 M80.525,177.067l6.129-2.011 M83.187,184.121
			l5.888-2.646 M86.555,190.867l5.582-3.252 M90.597,197.229l5.214-3.825 M95.282,203.122l4.791-4.354 M100.555,208.501l4.311-4.837
			 M106.356,213.285l3.788-5.265 M112.63,217.423l3.222-5.633 M119.295,220.87l2.621-5.942 M126.272,223.598l1.992-6.188
			 M133.501,225.586l1.34-6.365 M140.905,226.809l0.674-6.471"/>
		
			<path fill-rule="evenodd" clip-rule="evenodd" fill="none" stroke="#546E7A" stroke-width="5.6664" stroke-miterlimit="22.9256" d="
			M148.524,77.236c16.302,0,29.596-6.181,29.596-13.76c0-7.58-13.294-13.76-29.596-13.76c-16.301,0-29.596,6.18-29.596,13.76
			C118.928,71.055,132.223,77.236,148.524,77.236z"/>
		<g>
			<rect x="145.553" y="66.313" fill-rule="evenodd" clip-rule="evenodd" fill="#F89B36" width="5.941" height="11.281"/>
			<rect x="139.208" y="63.316" fill-rule="evenodd" clip-rule="evenodd" fill="#4E4E4E" width="18.633" height="5.996"/>
		</g>
		<g>
			<polygon fill-rule="evenodd" clip-rule="evenodd" fill="#B0BEC5" points="189.853,76.688 194.997,79.685 189.409,89.456 
				184.265,86.457 			"/>
			<polygon fill-rule="evenodd" clip-rule="evenodd" fill="#546E7A" points="201.978,80.292 199.008,85.486 182.87,76.081 
				185.841,70.889 			"/>
		</g>
		<g>
			<polygon fill-rule="evenodd" clip-rule="evenodd" fill="#B0BEC5" points="102.053,79.685 107.196,76.689 112.784,86.457 
				107.641,89.456 			"/>
			<polygon fill-rule="evenodd" clip-rule="evenodd" fill="#78909C" points="111.208,70.889 114.178,76.081 98.042,85.486 
				95.072,80.293 			"/>
		</g>
		
			<path fill-rule="evenodd" clip-rule="evenodd" fill="#546E7A" stroke="#546E7A" stroke-width="0.9032" stroke-miterlimit="22.9256" d="
			M147.327,99.433l-3.609,60.404c-0.125,2.101,2.8,4.854,4.807,4.854c2.008,0,4.933-2.752,4.807-4.854l-3.609-60.404
			C149.584,97.122,147.452,97.333,147.327,99.433z"/>
	</g>
</g>
</svg>
