<?xml version="1.0" encoding="utf-8"?>
<!-- Generator: Adobe Illustrator 16.0.0, SVG Export Plug-In . SVG Version: 6.00 Build 0)  -->
<!DOCTYPE svg PUBLIC "-//W3C//DTD SVG 1.1//EN" "http://www.w3.org/Graphics/SVG/1.1/DTD/svg11.dtd">
<svg version="1.1" id="Layer_1" xmlns="http://www.w3.org/2000/svg" xmlns:xlink="http://www.w3.org/1999/xlink" x="0px" y="0px"
	 width="300px" height="300px" viewBox="0 0 300 300" enable-background="new 0 0 300 300" xml:space="preserve">
<g>
	<circle fill="#E0F7FA" cx="150" cy="150" r="126.45"/>
	<circle fill="none" stroke="#80DEEA" stroke-width="7.2257" stroke-miterlimit="10" cx="150" cy="150" r="140"/>
	<g>
		<path fill="none" d="M145.644,251.937l-0.002-11.051L93.89,206.874l6.921-20.957l-48.612-35.232l62.271-6.125l10.868-32.906
			l13.501-1.974l7.166-58.908l41.507,51.791l13.71-2.004l39.863,50.01l6.667-0.001l25.566,26.655
			c1.842-8.59,2.82-17.498,2.82-26.636c0-69.837-56.613-126.451-126.45-126.451c-69.836,0-126.45,56.614-126.45,126.451
			c0,69.836,56.613,126.448,126.45,126.448c6.861,0,13.594-0.554,20.158-1.604L145.644,251.937z"/>
		<path fill="none" d="M235.845,243.132l-17.096,13.389C224.831,252.547,230.549,248.064,235.845,243.132z"/>
		<path opacity="0.7" fill="#B2DFDB" d="M172.182,63.156L147.373,97.04l-6.174,117.588l-35.223,18.627l70.368,39.901
			c17.82-2.855,32.041-9.99,46.551-19.469l18.863-16.596c18.587-17.312,26.01-32.717,31.532-58.472L172.182,63.156z"/>
	</g>
	<g>
		<defs>
			<rect id="SVGID_1_" x="20.395" y="14.91" width="241.608" height="241.611"/>
		</defs>
		<clipPath id="SVGID_2_">
			<use xlink:href="#SVGID_1_"  overflow="visible"/>
		</clipPath>
		<g clip-path="url(#SVGID_2_)">
			<g>
				<path opacity="0.4" fill="#BDBDBD" d="M183.871,224.02L183.871,224.02c0-5.007-12.83-9.199-30.055-10.289v-4.023h-2.615V207
					h-1.19v-73.536c1.671-0.13,3.085-1.173,3.746-2.629h0.003c0,0,0.006-0.015,0.018-0.042c0.018-0.042,0.037-0.085,0.055-0.129
					c0.535-1.259,3.91-9.212,5.335-13.096c2.431-0.074,4.353-0.556,5.869-1.244c0.091-0.04,0.182-0.078,0.271-0.12
					c1.214-0.56,2.164-1.301,2.901-2.075c1.403-1.434,2.003-2.925,2.228-3.646c0.105-0.306,0.149-0.489,0.149-0.489
					s-0.003-0.001-0.008-0.005c0.259-0.966,1.97-7.392,3.967-15.168c0.729-2.838,1.438-5.875,2.02-8.844
					c0.705-3.597,1.24-7.116,1.644-10.313c1.393-11.051-14.775-16.37-15.874-16.719c-0.754-0.348-4.066-1.667-11.421-1.91
					c-8.489-0.281-15.296,1.942-17.385,9.567c-1.877,6.855-5.57,28.988-6.401,34.228c-0.033-0.002-0.049-0.004-0.049-0.004
					c-0.005,0.036-0.022,0.223-0.033,0.526c-0.046,0.291-0.074,0.486-0.084,0.563c0.001,0,0.002,0,0.003,0
					c-0.003,0.117-0.064,3.337,1.421,6.688c0.683,1.573,1.706,3.138,3.222,4.44c0.033,0.028,0.064,0.059,0.099,0.088
					c0.018,0.014,0.037,0.029,0.056,0.044c0.063,0.052,0.124,0.103,0.188,0.153c0.093,0.073,0.187,0.145,0.284,0.217
					c0.116,0.085,0.234,0.171,0.355,0.253c0.145,0.1,0.289,0.197,0.43,0.287c0.978,0.639,2.196,1.149,3.566,1.564
					c-0.729,1.474-1.829,4.153-2.608,8.114c-1.264,6.43,2.179,8.467,3.794,8.537c0.321,0.014,1.003,0.064,1.884,0.135V207h-1.669
					v2.707h-2.039v4.028c-17.176,1.102-29.96,5.287-29.96,10.283c0,0.042,0.004,0.085,0.007,0.125l-0.005,8.017
					c-0.009,0.087-0.013,0.174-0.013,0.262c0,5.836,17.429,10.566,38.932,10.566c21.5,0,38.931-4.73,38.931-10.566
					c0-0.128-0.012-0.257-0.028-0.384L183.871,224.02L183.871,224.02z"/>
			</g>
			<g>
				<rect x="137.947" y="123.093" fill="#546E7A" width="10.354" height="93.196"/>
				<g>
					<path fill="#263238" d="M182.162,221.75l-15.413-0.012c-6.539-1.35-14.699-2.153-23.55-2.153
						c-8.771,0-16.865,0.79-23.375,2.117l-15.538-0.012l-0.004,8.201c-0.009,0.086-0.014,0.174-0.014,0.261
						c0,5.836,17.431,10.566,38.932,10.566c21.501,0,38.931-4.73,38.931-10.566c0-0.128-0.01-0.256-0.028-0.384L182.162,221.75z"/>
					<ellipse fill="#455B65" cx="143.221" cy="221.749" rx="38.941" ry="10.567"/>
				</g>
				<rect x="136.278" y="204.73" fill="#455B65" width="13.214" height="9.897"/>
				<rect x="134.239" y="207.438" fill="#37474F" width="17.871" height="13.389"/>
				<g>
					<g>
						<path fill="#455B65" d="M135.641,112.012c0,0-2.107,3.056-3.371,9.483c-1.265,6.429,2.177,8.466,3.793,8.537
							c1.615,0.071,12.295,1.055,12.295,1.055l0.773-17.812L135.641,112.012z"/>
						<path fill="#263238" d="M152.068,128.525c0.02-0.044,0.038-0.086,0.055-0.13c0.714-1.676,6.462-15.225,5.936-15.225
							c-1.055-0.229-8.4-1.158-8.4-1.158l-5.779,12.769c-0.276,0.584-0.436,1.234-0.436,1.923c0,2.488,2.018,4.506,4.505,4.506
							c1.823,0,3.391-1.087,4.1-2.645h0.002C152.051,128.565,152.057,128.55,152.068,128.525z"/>
						<g>
							<g>
								
									<ellipse transform="matrix(0.8309 0.5564 -0.5564 0.8309 95.4289 -61.1538)" fill="#FFFFFF" cx="148.33" cy="126.432" rx="2.571" ry="2.723"/>
								
									<ellipse transform="matrix(0.8308 0.5566 -0.5566 0.8308 95.4678 -61.1649)" fill="#3B3E43" cx="148.33" cy="126.431" rx="1.915" ry="2.028"/>
							</g>
							<g>
								<defs>
									
										<ellipse id="SVGID_3_" transform="matrix(0.8308 0.5566 -0.5566 0.8308 95.4678 -61.1649)" cx="148.33" cy="126.431" rx="1.915" ry="2.028"/>
								</defs>
								<clipPath id="SVGID_4_">
									<use xlink:href="#SVGID_3_"  overflow="visible"/>
								</clipPath>
								
									<rect x="147.787" y="124.425" transform="matrix(-0.5835 0.8121 -0.8121 -0.5835 337.6198 79.7596)" clip-path="url(#SVGID_4_)" fill="#272A2F" width="1.143" height="4.05"/>
							</g>
						</g>
						<g>
							<path fill="#D0D8DC" d="M168.676,107.888c0,0-10.809-4.883-19.133-6.232c-17.292-2.801-24.46-1.902-24.46-1.902
								s-0.199,7.044,4.742,11.225c0.382,0.322,0.868,0.67,1.313,0.953c3.091,1.973,8.542,2.859,13.962,3.13
								c4.195,0.211,8.061,0.215,10.256,0.332C167.125,116.021,168.676,107.888,168.676,107.888z"/>
							<path fill="#90A4AE" d="M168.879,107.725c0,0-1.167-0.73-7.54-3.002c-6.374-2.274-11.245-2.757-11.245-2.757
								s0.111,5.909,1.271,9.335c1.209,3.567,3.863,4.082,3.863,4.082s4.281,0.442,8.372-1.446
								C167.889,111.958,168.879,107.725,168.879,107.725z"/>
							<g>
								<defs>
									<path id="SVGID_5_" d="M168.849,107.772c0,0-10.824-4.798-19.133-6.231c-8.311-1.434-24.347-2.983-24.347-2.983
										c-0.044,0.273-0.855,9.236,5.833,13.405c5.645,3.689,19.331,3.167,24.274,3.431
										C167.245,116.021,168.849,107.772,168.849,107.772z"/>
								</defs>
								<clipPath id="SVGID_6_">
									<use xlink:href="#SVGID_5_"  overflow="visible"/>
								</clipPath>
								
									<path clip-path="url(#SVGID_6_)" fill="none" stroke="#455B65" stroke-width="3.1072" stroke-linecap="round" stroke-linejoin="round" stroke-miterlimit="10" d="
									M146.187,105.144c-0.23,6.445,1.647,10.134,3.913,11.68"/>
								
									<path clip-path="url(#SVGID_6_)" fill="none" stroke="#455B65" stroke-width="3.1072" stroke-linecap="round" stroke-linejoin="round" stroke-miterlimit="10" d="
									M141.698,104.741c-0.547,10.402,2.647,11.969,4.776,13.004"/>
								
									<path clip-path="url(#SVGID_6_)" fill="none" stroke="#455B65" stroke-width="3.1072" stroke-linecap="round" stroke-linejoin="round" stroke-miterlimit="10" d="
									M136.98,104.396c-0.345,10.932,2.762,11.938,3.61,12.083"/>
								
									<path clip-path="url(#SVGID_6_)" fill="none" stroke="#455B65" stroke-width="3.1072" stroke-linecap="round" stroke-linejoin="round" stroke-miterlimit="10" d="
									M132.664,103.705c-0.403,11.853,2.187,11.853,3.165,12.659"/>
								
									<path clip-path="url(#SVGID_6_)" fill="none" stroke="#455B65" stroke-width="3.1072" stroke-linecap="round" stroke-linejoin="round" stroke-miterlimit="10" d="
									M128.463,102.842c-0.862,11.264,3.137,13.78,3.137,13.78"/>
							</g>
							<g>
								<defs>
									<path id="SVGID_7_" d="M161.059,56.787c0,0-3.366-1.741-11.855-2.021c-8.487-0.281-15.296,1.942-17.385,9.568
										c-2.087,7.625-6.476,34.652-6.476,34.652s13.409,1.352,24.759,2.99c0.014-0.685-0.007-6.577,2.928-19.39
										C155.963,69.772,161.059,56.787,161.059,56.787z"/>
								</defs>
								<use xlink:href="#SVGID_7_"  overflow="visible" fill="#D0D8DC"/>
								<clipPath id="SVGID_8_">
									<use xlink:href="#SVGID_7_"  overflow="visible"/>
								</clipPath>
								<g clip-path="url(#SVGID_8_)">
									<path fill="#546E7A" d="M154.48,62.707c-0.05,0-0.1-0.002-0.149-0.007c-0.803-0.082-1.388-0.799-1.306-1.602
										c0.027-0.27,0.307-2.69,1.593-4.366c1.11-1.444,2.426-2.814,2.482-2.873c0.56-0.582,1.482-0.598,2.065-0.039
										c0.581,0.561,0.599,1.485,0.039,2.068c-0.014,0.012-1.263,1.313-2.27,2.624c-0.669,0.87-0.955,2.412-1.003,2.881
										C155.855,62.146,155.221,62.707,154.48,62.707z"/>
									<path fill="#546E7A" d="M149.688,61.751c-0.803,0-1.457-0.649-1.462-1.453c0-0.25,0.018-2.503,1.068-4.317
										c0.997-1.72,3.391-3.599,3.663-3.807c0.639-0.493,1.555-0.375,2.049,0.263c0.492,0.638,0.375,1.555-0.262,2.049
										c-0.608,0.47-2.319,1.92-2.921,2.96c-0.559,0.962-0.677,2.406-0.674,2.834c0.005,0.807-0.646,1.465-1.453,1.471
										C149.694,61.751,149.69,61.751,149.688,61.751z"/>
									<path fill="#546E7A" d="M145.056,61.437c-0.77,0-1.415-0.604-1.457-1.382c-0.013-0.25-0.106-2.501,0.857-4.363
										c0.912-1.765,3.214-3.758,3.473-3.98c0.614-0.523,1.536-0.451,2.06,0.164c0.524,0.613,0.451,1.535-0.163,2.06
										c-0.584,0.5-2.223,2.031-2.775,3.098c-0.51,0.988-0.558,2.435-0.535,2.864c0.044,0.805-0.574,1.494-1.379,1.537
										C145.109,61.435,145.083,61.437,145.056,61.437z"/>
									<path fill="#546E7A" d="M140.556,61.598c-0.718,0-1.343-0.526-1.445-1.257c-0.035-0.248-0.318-2.482,0.483-4.419
										c0.759-1.838,2.884-4.018,3.123-4.26c0.567-0.573,1.492-0.579,2.065-0.013c0.575,0.567,0.581,1.492,0.014,2.066
										c-0.54,0.548-2.043,2.211-2.501,3.323c-0.421,1.017-0.352,2.44-0.29,2.903c0.106,0.797-0.452,1.535-1.249,1.644
										C140.689,61.593,140.621,61.598,140.556,61.598z"/>
									<path fill="#546E7A" d="M136.072,61.698c-0.685,0-1.295-0.483-1.432-1.18c-0.048-0.246-0.452-2.461,0.242-4.438
										c0.659-1.876,2.661-4.169,2.888-4.425c0.536-0.604,1.458-0.659,2.062-0.124c0.605,0.534,0.66,1.458,0.125,2.062
										c-0.509,0.576-1.919,2.319-2.316,3.453c-0.369,1.049-0.215,2.488-0.132,2.91c0.155,0.793-0.362,1.559-1.153,1.714
										C136.26,61.689,136.165,61.698,136.072,61.698z"/>
								</g>
								<path clip-path="url(#SVGID_8_)" fill="#546E7A" d="M178.892,80.818c-0.397,0-0.795-0.144-1.109-0.434
									c-4.045-3.709-13.298-8.565-20.209-10.602c-6.703-1.976-28.801-2.842-31.811-2.326c-0.895,0.153-1.745-0.447-1.898-1.343
									c-0.154-0.894,0.447-1.745,1.342-1.897c3.798-0.652,26.247,0.334,33.296,2.412c7.433,2.192,17.078,7.275,21.501,11.333
									c0.668,0.614,0.713,1.654,0.1,2.322C179.778,80.639,179.336,80.818,178.892,80.818z"/>
								<path clip-path="url(#SVGID_8_)" fill="#546E7A" d="M177.788,85.269c-0.396,0-0.795-0.144-1.11-0.434
									c-4.042-3.708-13.295-8.564-20.208-10.602c-6.704-1.975-28.802-2.839-31.812-2.324c-0.895,0.152-1.745-0.449-1.898-1.343
									c-0.152-0.895,0.448-1.744,1.342-1.897c3.798-0.651,26.247,0.334,33.297,2.413c7.435,2.192,17.08,7.276,21.501,11.333
									c0.668,0.615,0.714,1.654,0.099,2.323C178.676,85.088,178.231,85.269,177.788,85.269z"/>
								<path clip-path="url(#SVGID_8_)" fill="#546E7A" d="M176.685,89.719c-0.397,0-0.796-0.143-1.111-0.433
									c-4.042-3.71-13.296-8.564-20.208-10.602c-6.703-1.976-28.802-2.84-31.81-2.325c-0.896,0.154-1.745-0.448-1.898-1.342
									c-0.153-0.896,0.447-1.745,1.342-1.897c3.796-0.653,26.245,0.333,33.295,2.412c7.435,2.192,17.079,7.276,21.501,11.334
									c0.67,0.613,0.714,1.653,0.1,2.322C177.572,89.54,177.128,89.719,176.685,89.719z"/>
								<path clip-path="url(#SVGID_8_)" fill="#546E7A" d="M175.581,94.169c-0.396,0-0.795-0.142-1.11-0.432
									c-4.043-3.71-13.298-8.564-20.209-10.602c-6.702-1.976-28.803-2.842-31.813-2.325c-0.895,0.151-1.743-0.448-1.897-1.342
									c-0.153-0.896,0.448-1.745,1.343-1.898c3.798-0.651,26.246,0.334,33.296,2.413c7.434,2.192,17.079,7.274,21.501,11.333
									c0.669,0.614,0.714,1.654,0.1,2.322C176.469,93.991,176.025,94.169,175.581,94.169z"/>
								<path clip-path="url(#SVGID_8_)" fill="#546E7A" d="M174.477,98.62c-0.396,0-0.795-0.143-1.112-0.432
									c-4.041-3.71-13.295-8.565-20.206-10.603c-6.702-1.976-28.803-2.841-31.812-2.326c-0.895,0.154-1.745-0.446-1.898-1.343
									c-0.154-0.894,0.448-1.743,1.342-1.896c3.799-0.652,26.247,0.333,33.297,2.412c7.435,2.191,17.078,7.274,21.5,11.333
									c0.67,0.614,0.714,1.655,0.1,2.322C175.363,98.442,174.922,98.62,174.477,98.62z"/>
								<path clip-path="url(#SVGID_8_)" fill="#546E7A" d="M173.373,103.071c-0.396,0-0.795-0.142-1.111-0.432
									c-4.042-3.709-13.296-8.565-20.207-10.602c-6.704-1.977-28.805-2.843-31.812-2.326c-0.894,0.152-1.745-0.448-1.898-1.343
									c-0.153-0.894,0.448-1.744,1.342-1.896c3.798-0.651,26.247,0.334,33.298,2.412c7.434,2.191,17.078,7.275,21.5,11.334
									c0.669,0.613,0.714,1.652,0.101,2.322C174.26,102.892,173.818,103.071,173.373,103.071z"/>
								<path clip-path="url(#SVGID_8_)" fill="#546E7A" d="M172.269,107.522c-0.396,0-0.794-0.144-1.11-0.433
									c-4.041-3.709-13.295-8.564-20.208-10.601c-6.703-1.978-28.804-2.842-31.813-2.327c-0.893,0.154-1.744-0.447-1.896-1.341
									c-0.153-0.895,0.446-1.744,1.342-1.898c3.797-0.651,26.246,0.335,33.297,2.413c7.434,2.191,17.079,7.276,21.501,11.333
									c0.668,0.614,0.713,1.653,0.099,2.321C173.156,107.343,172.714,107.522,172.269,107.522z"/>
								<path clip-path="url(#SVGID_8_)" fill="#546E7A" d="M171.166,111.973c-0.396,0-0.796-0.144-1.112-0.432
									c-4.042-3.711-13.296-8.566-20.207-10.602c-6.702-1.977-28.803-2.842-31.811-2.327c-0.896,0.153-1.745-0.446-1.898-1.341
									c-0.153-0.895,0.448-1.746,1.343-1.898c3.798-0.651,26.246,0.334,33.296,2.413c7.433,2.191,17.079,7.276,21.501,11.334
									c0.668,0.613,0.713,1.653,0.1,2.321C172.054,111.794,171.609,111.973,171.166,111.973z"/>
							</g>
							<polygon fill="#D0D8DC" points="139.585,62.864 132.807,99.277 136.934,99.855 143.342,63.678 							"/>
							<path fill="#90A4AE" d="M176.499,73.395c-0.402,3.197-0.939,6.715-1.644,10.313c-0.582,2.97-1.29,6.008-2.02,8.845
								c-2.169,8.442-4.002,15.298-4.002,15.298s-8.531-4.359-18.757-5.881c0.166-2.648,0.321-7.816,2.997-19.751
								c2.745-11.828,7.491-25.563,7.491-25.563S177.94,61.955,176.499,73.395z"/>
							<g>
								<defs>
									<path id="SVGID_9_" d="M176.499,73.395c-1.97,13.594-2.216,13.564-7.665,34.457c0,0-0.384,1.391-0.968,2.238
										c-2.635-1.212-9.766-6.924-17.79-8.119c0.045-2.008,0.345-7.938,2.997-19.751c2.81-12.515,7.647-25.615,7.647-25.615
										S178.154,61.984,176.499,73.395z"/>
								</defs>
								<clipPath id="SVGID_10_">
									<use xlink:href="#SVGID_9_"  overflow="visible"/>
								</clipPath>
								<path clip-path="url(#SVGID_10_)" fill="#455B65" d="M178.892,80.818c-0.397,0-0.795-0.144-1.109-0.434
									c-4.045-3.709-13.298-8.565-20.209-10.602c-6.703-1.976-28.801-2.842-31.811-2.326c-0.895,0.153-1.745-0.447-1.898-1.343
									c-0.154-0.894,0.447-1.745,1.342-1.897c3.798-0.652,26.247,0.334,33.296,2.412c7.433,2.192,17.078,7.275,21.501,11.333
									c0.668,0.614,0.713,1.654,0.1,2.322C179.778,80.639,179.336,80.818,178.892,80.818z"/>
								<path clip-path="url(#SVGID_10_)" fill="#455B65" d="M177.788,85.269c-0.396,0-0.795-0.144-1.11-0.434
									c-4.042-3.708-13.295-8.564-20.208-10.602c-6.704-1.975-28.802-2.839-31.812-2.324c-0.895,0.152-1.745-0.449-1.898-1.343
									c-0.152-0.895,0.448-1.744,1.342-1.897c3.798-0.651,26.247,0.334,33.297,2.413c7.435,2.192,17.08,7.276,21.501,11.333
									c0.668,0.615,0.714,1.654,0.099,2.323C178.676,85.088,178.231,85.269,177.788,85.269z"/>
								<path clip-path="url(#SVGID_10_)" fill="#455B65" d="M176.685,89.719c-0.397,0-0.796-0.143-1.111-0.433
									c-4.042-3.71-13.296-8.564-20.208-10.602c-6.703-1.976-28.802-2.84-31.81-2.325c-0.896,0.154-1.745-0.448-1.898-1.342
									c-0.153-0.896,0.447-1.745,1.342-1.897c3.796-0.653,26.245,0.333,33.295,2.412c7.435,2.192,17.079,7.276,21.501,11.334
									c0.67,0.613,0.714,1.653,0.1,2.322C177.572,89.54,177.128,89.719,176.685,89.719z"/>
								<path clip-path="url(#SVGID_10_)" fill="#455B65" d="M175.581,94.169c-0.396,0-0.795-0.142-1.11-0.432
									c-4.043-3.71-13.298-8.564-20.209-10.602c-6.702-1.976-28.803-2.842-31.813-2.325c-0.895,0.151-1.743-0.448-1.897-1.342
									c-0.153-0.896,0.448-1.745,1.343-1.898c3.798-0.651,26.246,0.334,33.296,2.413c7.434,2.192,17.079,7.274,21.501,11.333
									c0.669,0.614,0.714,1.654,0.1,2.322C176.469,93.991,176.025,94.169,175.581,94.169z"/>
								<path clip-path="url(#SVGID_10_)" fill="#455B65" d="M174.477,98.62c-0.396,0-0.795-0.143-1.112-0.432
									c-4.041-3.71-13.295-8.565-20.206-10.603c-6.702-1.976-28.803-2.841-31.812-2.326c-0.895,0.154-1.745-0.446-1.898-1.343
									c-0.154-0.894,0.448-1.743,1.342-1.896c3.799-0.652,26.247,0.333,33.297,2.412c7.435,2.191,17.078,7.274,21.5,11.333
									c0.67,0.614,0.714,1.655,0.1,2.322C175.363,98.442,174.922,98.62,174.477,98.62z"/>
								<path clip-path="url(#SVGID_10_)" fill="#455B65" d="M173.373,103.071c-0.396,0-0.795-0.142-1.111-0.432
									c-4.042-3.709-13.296-8.565-20.207-10.602c-6.704-1.977-28.805-2.843-31.812-2.326c-0.894,0.152-1.745-0.448-1.898-1.343
									c-0.153-0.894,0.448-1.744,1.342-1.896c3.798-0.651,26.247,0.334,33.298,2.412c7.434,2.191,17.078,7.275,21.5,11.334
									c0.669,0.613,0.714,1.652,0.101,2.322C174.26,102.892,173.818,103.071,173.373,103.071z"/>
								<path clip-path="url(#SVGID_10_)" fill="#455B65" d="M172.269,107.522c-0.396,0-0.794-0.144-1.11-0.433
									c-4.041-3.709-13.295-8.564-20.208-10.601c-6.703-1.978-28.804-2.842-31.813-2.327c-0.893,0.154-1.744-0.447-1.896-1.341
									c-0.153-0.895,0.446-1.744,1.342-1.898c3.797-0.651,26.246,0.335,33.297,2.413c7.434,2.191,17.079,7.276,21.501,11.333
									c0.668,0.614,0.713,1.653,0.099,2.321C173.156,107.343,172.714,107.522,172.269,107.522z"/>
								<path clip-path="url(#SVGID_10_)" fill="#455B65" d="M171.166,111.973c-0.396,0-0.796-0.144-1.112-0.432
									c-4.042-3.711-13.296-8.566-20.207-10.602c-6.702-1.977-28.803-2.842-31.811-2.327c-0.896,0.153-1.745-0.446-1.898-1.341
									c-0.153-0.895,0.448-1.746,1.343-1.898c3.798-0.651,26.246,0.334,33.296,2.413c7.433,2.191,17.079,7.276,21.501,11.334
									c0.668,0.613,0.713,1.653,0.1,2.321C172.054,111.794,171.609,111.973,171.166,111.973z"/>
							</g>
							<polygon fill="#90A4AE" points="167.002,67.612 157.108,107.215 161.801,109.756 171.582,69.786 							"/>
						</g>
					</g>
					<path fill="#3B3E43" d="M158.503,66.629c-1.188-0.349-2.812-0.667-4.708-0.953l-0.659,3.218
						c1.796,0.265,3.329,0.561,4.438,0.888c0.815,0.24,1.664,0.521,2.531,0.833l0.712-3.236
						C160.028,67.102,159.254,66.851,158.503,66.629z"/>
					<path fill="#3B3E43" d="M157.399,71.08c-1.147-0.339-2.705-0.647-4.522-0.925l-0.658,3.217c1.716,0.26,3.18,0.545,4.251,0.86
						c0.853,0.251,1.74,0.548,2.648,0.876l0.711-3.238C159,71.577,158.188,71.313,157.399,71.08z"/>
					<path fill="#3B3E43" d="M156.295,75.531c-1.107-0.327-2.598-0.625-4.335-0.896l-0.659,3.217
						c1.636,0.25,3.033,0.528,4.064,0.833c0.89,0.262,1.817,0.571,2.767,0.918l0.711-3.239
						C157.974,76.054,157.121,75.774,156.295,75.531z"/>
					<path fill="#3B3E43" d="M155.191,79.981c-1.068-0.315-2.491-0.604-4.148-0.867l-0.659,3.217
						c1.556,0.243,2.886,0.512,3.878,0.804c0.925,0.272,1.893,0.598,2.882,0.961l0.712-3.241
						C156.946,80.531,156.054,80.235,155.191,79.981z"/>
					<path fill="#3B3E43" d="M154.088,84.433c-1.029-0.303-2.385-0.584-3.962-0.839l-0.659,3.218
						c1.475,0.235,2.74,0.494,3.692,0.773c0.961,0.282,1.967,0.625,2.998,1.005l0.712-3.242
						C155.92,85.006,154.986,84.698,154.088,84.433z"/>
					<path fill="#3B3E43" d="M152.984,88.883c-0.988-0.291-2.278-0.561-3.777-0.807l-0.658,3.217
						c1.396,0.227,2.594,0.475,3.506,0.744c0.996,0.293,2.044,0.648,3.115,1.047l0.713-3.243
						C154.891,89.484,153.919,89.159,152.984,88.883z"/>
					<path fill="#3B3E43" d="M151.881,93.334c-0.947-0.28-2.173-0.537-3.591-0.775l-0.658,3.215c1.314,0.22,2.448,0.457,3.319,0.715
						c1.034,0.303,2.12,0.674,3.232,1.091l0.712-3.243C153.864,93.959,152.852,93.622,151.881,93.334z"/>
					<path fill="#3B3E43" d="M150.776,97.785c-0.904-0.267-2.065-0.515-3.404-0.745l-0.659,3.215
						c1.236,0.211,2.303,0.438,3.133,0.684c1.069,0.314,2.195,0.699,3.349,1.134l0.712-3.244
						C152.836,98.437,151.785,98.083,150.776,97.785z"/>
				</g>
			</g>
		</g>
	</g>
</g>
</svg>
